<?xml version="1.0" standalone="no"?>
<!DOCTYPE svg PUBLIC "-//W3C//DTD SVG 20010904//EN"
 "http://www.w3.org/TR/2001/REC-SVG-20010904/DTD/svg10.dtd">
<svg version="1.0" xmlns="http://www.w3.org/2000/svg"
 width="1910.000000pt" height="1910.000000pt" viewBox="0 0 1910.000000 1910.000000"
 preserveAspectRatio="xMidYMid meet">
<metadata>
Created by potrace 1.14, written by Peter Selinger 2001-2017
</metadata>
<g transform="translate(0.000000,1910.000000) scale(0.100000,-0.100000)"
fill="#000000" stroke="none">
<path d="M0 18430 c0 -368 2 -670 6 -670 3 0 74 40 159 89 148 86 154 89 170
71 16 -18 15 -54 -16 -587 l-33 -568 99 -545 99 -545 232 -533 233 -533 338
-465 338 -466 419 -358 419 -358 499 -253 c393 -199 496 -255 486 -264 -7 -7
-109 -67 -226 -133 l-213 -121 -502 245 -503 246 -421 362 -421 361 -346 479
-345 478 -137 312 c-76 171 -182 410 -236 531 l-98 220 0 -1378 0 -1377 33 13
c145 61 378 -8 480 -141 16 -20 40 -62 54 -92 36 -76 38 -218 4 -300 -42 -104
-122 -183 -231 -230 -72 -30 -198 -32 -282 -3 l-58 20 0 -5969 0 -5968 1961 0
1961 0 -5 28 c-32 148 -33 621 -3 877 45 379 123 758 178 870 79 159 263 501
273 507 21 12 65 150 195 608 21 72 77 219 91 236 12 15 40 96 35 101 -5 5
-54 -98 -89 -187 -28 -69 -101 -309 -163 -530 -21 -74 -43 -142 -49 -150 -12
-15 -173 -305 -233 -420 -42 -80 -42 -80 -42 -44 0 23 2 26 11 14 8 -11 9 -3
5 33 -4 34 -2 46 5 41 8 -5 9 9 4 46 -5 38 -4 51 4 46 6 -4 11 -4 11 1 0 4 5
49 10 98 5 50 21 216 35 370 28 315 43 430 86 692 41 250 119 631 180 883 38
154 50 142 24 -23 -27 -173 -46 -392 -50 -577 -2 -102 -2 -178 0 -170 3 8 14
125 25 260 37 443 74 700 171 1185 52 261 108 505 136 590 22 70 145 379 200
505 70 159 178 364 248 471 58 89 140 174 168 174 7 0 17 -28 24 -65 28 -157
162 -579 249 -785 66 -158 160 -284 265 -356 l23 -16 -68 -74 c-175 -189 -346
-457 -476 -749 -51 -114 -129 -318 -156 -411 -11 -36 -20 -49 -33 -49 -11 0
-41 -17 -68 -38 -171 -136 -329 -370 -412 -606 -40 -112 -35 -135 7 -36 90
216 164 344 281 484 77 92 193 196 199 178 2 -6 -7 -56 -18 -112 -12 -56 -20
-103 -17 -106 2 -3 18 53 35 124 70 288 226 654 396 930 59 95 167 242 298
405 55 69 73 97 60 97 -82 0 -247 214 -327 425 -57 148 -147 426 -180 553 -37
141 -61 312 -48 336 31 55 378 305 568 411 246 136 735 365 780 365 8 0 19
-17 26 -42 39 -142 50 -213 56 -366 l6 -162 -29 0 c-16 0 -58 -7 -94 -16 -50
-11 -74 -24 -102 -51 -21 -21 -38 -41 -38 -47 0 -5 12 2 28 16 32 32 70 48
137 60 102 17 142 20 149 10 14 -23 -156 -388 -176 -376 -7 5 -9 49 -6 138 5
140 -8 133 -19 -10 -7 -95 6 -162 49 -248 38 -75 46 -68 12 11 l-26 60 40 74
c23 41 50 101 62 134 12 33 35 87 50 120 33 68 111 277 106 282 -2 2 -20 -33
-40 -77 -54 -118 -62 -109 -71 73 -10 231 -56 462 -123 617 -5 14 -60 147
-121 295 -61 149 -120 290 -131 315 -75 175 -93 220 -124 321 -79 254 -102
368 -131 659 -9 79 -19 148 -24 153 -5 5 -17 -2 -28 -19 -16 -25 -18 -52 -18
-274 l0 -245 -34 -81 c-39 -95 -86 -177 -77 -132 46 218 11 729 -68 978 -45
144 -55 176 -105 355 -79 286 -153 564 -246 930 -142 561 -219 831 -319 1115
-54 156 -88 298 -127 536 -20 122 -21 251 -3 350 2 13 0 24 -6 24 -5 0 -10
-10 -10 -22 0 -44 -50 -290 -84 -416 -63 -232 -182 -566 -254 -712 -19 -39
-34 -56 -49 -58 -13 -2 -23 0 -23 5 0 5 20 69 45 143 86 257 157 585 180 835
3 39 15 131 26 205 10 74 23 241 29 370 5 129 14 352 20 495 12 294 34 580 57
735 8 58 17 125 19 150 21 204 165 765 229 890 7 14 18 43 25 65 21 67 193
412 281 560 97 165 253 402 353 535 39 52 84 114 100 138 139 204 737 529
1071 582 107 17 359 15 420 -4 59 -19 58 -18 51 -7 -3 5 -34 16 -68 25 -82 22
-389 18 -488 -6 -155 -38 -456 -173 -641 -288 -176 -109 -348 -259 -409 -357
-8 -13 -24 -26 -35 -28 -39 -8 -175 -12 -175 -5 0 21 208 282 325 406 733 785
1412 1166 2377 1333 500 87 1140 134 1517 111 461 -27 778 -109 1121 -292 108
-57 290 -174 290 -186 0 -4 -35 -25 -77 -46 -119 -58 -323 -176 -323 -187 0
-16 15 -10 107 41 169 93 453 223 728 333 732 294 1544 479 2425 552 207 17
543 35 549 29 2 -2 -1 -194 -8 -426 -16 -609 -58 -1005 -171 -1608 -11 -58
-31 -166 -45 -240 -90 -493 -166 -863 -226 -1101 -17 -68 -37 -151 -44 -184
-43 -186 -134 -422 -204 -525 -74 -108 -73 -138 1 -37 44 59 127 215 182 341
15 33 28 57 30 55 6 -6 131 -257 155 -310 48 -109 150 -386 175 -479 55 -201
70 -257 92 -354 13 -61 28 -135 34 -165 5 -31 16 -94 25 -141 38 -205 97 -646
115 -865 83 -988 110 -1251 165 -1585 13 -80 29 -206 35 -280 20 -240 38 -332
110 -565 85 -274 147 -422 248 -590 138 -232 337 -393 572 -467 64 -20 95 -23
215 -22 121 1 152 5 230 28 50 15 125 43 168 63 59 28 80 34 89 25 25 -25
-156 -174 -278 -228 -279 -123 -682 -104 -962 46 -137 74 -316 234 -465 416
-58 70 -127 176 -127 195 0 5 -4 9 -10 9 -13 0 -13 -1 5 -44 27 -64 84 -145
187 -264 130 -152 128 -147 183 -372 14 -58 52 -190 85 -295 32 -104 81 -269
110 -365 72 -244 117 -391 150 -490 16 -47 54 -166 85 -265 31 -99 62 -193 70
-210 7 -16 27 -73 44 -125 16 -52 96 -290 176 -529 80 -239 145 -438 145 -444
0 -5 -17 15 -37 44 -20 30 -91 131 -157 224 -66 94 -145 206 -175 250 -58 85
-130 174 -194 240 -49 50 -71 88 -145 250 -103 223 -230 622 -262 823 0 1 -6
2 -13 2 -21 0 -57 134 -72 273 -6 54 -25 81 -25 35 0 -53 -10 0 -30 152 -27
216 -66 465 -86 549 -9 37 -15 106 -15 159 1 50 -3 92 -8 92 -9 0 -26 -154
-18 -167 14 -22 86 -491 106 -693 6 -58 29 -303 51 -545 23 -242 45 -469 50
-505 5 -36 21 -141 35 -234 14 -93 24 -170 22 -173 -5 -5 -308 104 -504 181
-78 31 -205 76 -282 101 l-140 46 -20 67 c-93 318 -158 577 -240 965 -78 363
-105 520 -132 757 l-13 115 -12 -45 c-12 -40 -13 -30 -8 100 14 397 76 1398
88 1419 6 11 -14 593 -29 846 -8 137 -25 359 -37 494 -16 182 -18 246 -10 249
14 4 16 137 2 267 -73 736 -132 1038 -318 1640 -84 272 -230 656 -260 685 -8
8 -12 11 -9 5 11 -21 37 -119 29 -110 -5 6 -21 42 -37 80 -58 143 -175 377
-256 512 -116 194 -221 350 -525 776 -27 38 -94 123 -150 191 -55 67 -128 159
-163 205 -138 181 -321 360 -581 568 -638 509 -1206 782 -1780 855 -135 17
-431 14 -575 -5 -269 -37 -529 -128 -658 -231 -53 -43 -117 -118 -117 -138 0
-16 19 -8 25 11 14 46 149 156 240 196 465 206 1104 207 1655 2 238 -88 533
-243 800 -420 135 -90 386 -278 515 -386 138 -116 383 -366 450 -459 33 -46
88 -113 123 -148 34 -36 74 -83 88 -105 13 -22 40 -56 58 -77 61 -68 238 -316
403 -562 153 -229 303 -511 414 -776 60 -143 179 -488 179 -517 0 -29 -306
-306 -435 -394 -91 -61 -97 -61 -119 -5 -49 119 -127 201 -234 244 -50 19 -75
22 -197 22 -128 0 -145 -2 -204 -27 -36 -14 -68 -24 -73 -21 -5 3 -20 28 -33
55 -14 27 -60 109 -102 182 -42 72 -101 186 -133 252 -51 107 -145 268 -223
380 -16 22 -86 128 -156 236 -264 402 -489 675 -926 1117 -334 339 -545 522
-737 638 -109 66 -196 109 -204 101 -2 -2 24 -19 58 -37 246 -130 421 -274
844 -695 336 -334 526 -549 730 -825 179 -243 279 -400 317 -500 55 -143 150
-405 211 -580 35 -102 71 -203 79 -226 35 -94 76 -380 77 -522 l0 -74 -62 7
c-150 17 -325 66 -476 136 -88 40 -113 63 -338 300 -109 115 -138 136 -124 91
5 -15 16 -51 25 -79 9 -29 21 -53 27 -53 6 0 28 -20 49 -44 86 -97 330 -238
523 -301 114 -37 183 -53 306 -69 l85 -12 7 -44 c4 -24 4 -47 0 -51 -4 -4 -59
-17 -122 -29 -63 -12 -166 -35 -229 -51 l-114 -29 -37 24 c-21 13 -66 50 -101
81 l-64 58 71 -71 c50 -48 94 -81 145 -105 70 -34 185 -64 173 -46 -3 5 -17 9
-32 9 -18 0 -23 3 -15 11 11 11 282 69 323 69 23 -1 24 -2 7 -14 -14 -11 -15
-19 -8 -38 13 -35 3 -45 -64 -69 -72 -25 -220 -30 -305 -10 -188 44 -366 152
-513 310 -128 138 -161 203 -302 576 -36 94 -92 222 -125 285 -33 63 -97 201
-141 305 -142 332 -233 525 -336 710 -118 210 -305 490 -437 655 -67 83 -314
340 -328 340 -5 0 30 -39 76 -87 219 -227 439 -525 631 -858 186 -321 303
-582 445 -995 157 -456 213 -757 227 -1215 6 -228 -2 -356 -42 -602 -12 -81
-22 -150 -20 -152 12 -11 62 259 72 386 3 45 11 87 17 92 51 41 377 183 562
246 l81 27 69 -22 c139 -44 341 -35 450 20 51 27 56 26 81 -19 55 -96 125
-153 263 -215 17 -7 71 -9 160 -5 186 7 238 32 326 150 27 37 41 48 72 53 22
3 55 12 74 20 47 20 190 136 207 169 18 34 35 35 28 1 -3 -16 -1 -22 5 -16 5
5 8 40 6 78 l-3 69 -24 -65 c-26 -72 -75 -127 -172 -193 -51 -35 -126 -63
-138 -51 -3 2 4 30 14 62 12 36 21 102 24 177 l6 121 40 54 c67 94 116 145
225 235 108 90 181 162 230 228 16 21 30 34 33 30 15 -26 127 -464 164 -638
85 -412 116 -587 138 -785 8 -74 22 -173 30 -220 55 -301 105 -919 126 -1535
11 -332 11 -362 -10 -580 -60 -647 -89 -1374 -107 -2685 -6 -402 -4 -519 9
-685 9 -110 21 -269 27 -352 12 -168 57 -539 105 -851 24 -160 92 -559 109
-640 9 -40 16 -94 16 -119 0 -54 76 -359 152 -606 20 -67 1 -50 -50 45 -246
461 -372 718 -372 760 0 7 -5 20 -11 28 -8 11 -9 6 -5 -20 12 -79 -39 103
-124 440 -143 569 -171 708 -172 850 0 61 -2 69 -9 45 -12 -38 11 -239 45
-396 122 -563 319 -1295 432 -1607 131 -363 289 -655 467 -867 67 -79 69 -83
173 -335 282 -681 614 -1250 964 -1650 76 -87 89 -100 236 -241 62 -58 140
-127 174 -152 34 -26 57 -47 50 -47 -22 0 -244 82 -335 123 -260 119 -513 309
-693 520 -151 179 -215 278 -262 412 -100 284 -201 545 -230 597 -25 44 -94
240 -135 383 -26 88 -52 165 -57 170 -16 15 -2 -354 23 -618 18 -186 22 -305
24 -732 1 -337 7 -544 15 -610 12 -92 11 -112 -9 -235 -48 -292 -80 -421 -133
-538 -11 -24 -17 -50 -14 -57 2 -7 -4 -22 -15 -34 -14 -14 -18 -28 -14 -42 5
-14 3 -19 -3 -15 -6 3 -16 -10 -22 -31 -7 -21 -23 -57 -36 -80 -27 -46 -30
-69 -11 -76 6 -2 5 -3 -3 -2 -28 4 -40 -20 -30 -56 13 -43 5 -49 -9 -7 -11 31
4 184 39 403 23 137 32 455 21 663 -40 712 -200 1326 -449 1727 -103 164 -286
408 -379 505 -40 41 -204 259 -280 370 -52 77 -200 359 -247 471 -141 337
-236 734 -301 1249 -21 165 -25 177 -19 50 14 -295 100 -773 188 -1043 106
-328 228 -560 454 -869 l63 -88 -98 -98 c-54 -54 -136 -131 -183 -172 -46 -41
-199 -186 -339 -323 -140 -136 -262 -247 -270 -247 -30 0 -214 134 -308 224
-52 49 -124 126 -160 170 -37 45 -87 102 -112 129 -25 26 -40 47 -33 47 7 0
55 -18 107 -40 94 -40 150 -49 185 -30 11 6 29 43 46 92 52 159 154 440 185
511 18 40 50 99 72 132 41 60 153 179 195 207 31 21 17 54 -40 99 -24 19 -79
68 -123 109 -91 84 -350 300 -407 338 l-38 24 42 52 c215 267 405 583 508 842
47 118 31 107 -23 -15 -153 -348 -429 -756 -662 -981 -77 -74 -77 -72 18 64
207 299 376 783 536 1526 177 827 212 1318 150 2098 l-10 133 45 112 c54 137
83 232 61 203 -8 -11 -15 -24 -15 -29 0 -19 -93 -221 -146 -320 -163 -298
-447 -672 -692 -909 -62 -60 -108 -108 -103 -108 16 0 158 129 253 229 96 102
97 103 103 75 18 -85 59 -195 88 -236 17 -25 55 -65 84 -87 49 -39 51 -44 46
-79 -12 -88 -80 -182 -218 -303 -32 -28 -232 -162 -335 -224 -239 -145 -553
-278 -754 -320 -77 -15 -251 -21 -259 -7 -3 4 -7 192 -11 417 -3 226 -9 555
-12 733 l-7 322 22 0 c25 0 135 49 127 57 -3 3 -26 -2 -52 -11 -57 -19 -93
-21 -98 -3 -3 6 -7 207 -10 444 l-6 433 27 6 c78 19 119 63 108 114 -8 36 -48
60 -100 60 l-35 0 -1 93 c-7 582 -15 907 -24 916 -12 12 -2971 17 -3042 5 -31
-5 -43 -11 -42 -23 0 -9 3 -11 5 -4 4 9 51 11 187 8 100 -3 784 -7 1521 -9
736 -3 1340 -7 1343 -10 3 -2 9 -267 13 -588 5 -321 14 -808 19 -1083 6 -275
13 -804 17 -1175 4 -371 7 -714 8 -762 1 -95 0 -94 61 -78 l30 8 -27 1 c-27 1
-28 3 -28 52 l0 50 53 -6 c216 -27 648 118 997 334 85 53 242 169 296 218 17
16 53 46 81 66 111 81 158 160 175 289 9 71 7 81 -16 139 -14 35 -23 65 -21
67 2 3 21 -10 41 -28 45 -39 141 -86 195 -95 37 -6 39 -9 39 -43 0 -59 -28
-332 -50 -491 -96 -691 -281 -1419 -464 -1831 -26 -58 -59 -133 -74 -167 -15
-34 -30 -63 -35 -63 -8 0 -149 100 -320 227 -130 96 -232 156 -462 273 -117
59 -236 111 -308 134 l-117 38 -2 182 c-2 217 -2 216 -11 216 -4 0 -13 0 -19
0 -10 0 -12 -29 -6 -127 11 -228 9 -393 -4 -394 -7 0 -3 -4 10 -9 12 -5 29 -7
37 -4 24 10 156 -36 198 -69 51 -39 71 -80 64 -131 -10 -75 -102 -129 -246
-145 l-55 -6 5 -60 c2 -33 4 -125 4 -205 l0 -144 -400 2 c-661 4 -1373 14
-1384 21 -18 12 1 51 33 68 17 9 65 27 106 39 41 12 64 23 50 23 -36 1 -151
-37 -174 -57 -21 -19 -46 -72 -46 -99 0 -17 19 -18 293 -19 950 -3 1019 -4
1015 -14 -2 -6 -63 -37 -135 -69 -73 -32 -156 -72 -185 -89 -29 -16 -91 -39
-138 -51 -105 -27 -484 -146 -657 -207 -160 -56 -383 -147 -383 -156 0 -4 24
2 53 13 128 52 126 51 134 21 13 -47 9 -191 -11 -342 -47 -364 -34 -763 34
-1070 34 -154 118 -398 177 -513 13 -27 22 -51 20 -53 -11 -11 -131 135 -191
232 -106 173 -135 287 -126 504 6 138 3 193 -20 340 -5 36 -10 112 -10 170 0
154 -17 327 -45 480 -32 175 -42 210 -61 210 -28 0 -78 -32 -153 -97 -140
-122 -342 -258 -372 -250 -12 3 0 -29 41 -117 32 -66 71 -157 87 -201 17 -49
29 -72 31 -59 4 26 -20 86 -94 238 -47 97 -55 121 -43 128 8 5 55 32 104 60
50 28 128 80 174 116 66 51 85 62 92 51 28 -40 90 -174 108 -230 64 -199 83
-402 81 -844 -1 -198 -3 -418 -5 -490 -2 -81 2 -171 11 -240 24 -173 30 -482
11 -587 -17 -100 -50 -178 -97 -231 -49 -56 -81 -47 -117 34 -11 25 -28 75
-36 110 -19 73 -38 353 -30 420 4 34 3 41 -6 33 -10 -9 -10 -58 -2 -215 11
-215 21 -271 65 -358 31 -60 28 -67 -34 -76 -19 -3 -78 -19 -130 -35 -235 -73
-684 -169 -865 -185 -38 -4 -103 -13 -143 -21 -135 -27 -302 8 -417 87 -60 41
-147 135 -202 219 -50 75 -144 263 -178 353 -10 26 -20 46 -22 43 -7 -7 76
-213 119 -294 88 -170 202 -306 304 -363 30 -17 52 -34 49 -39 -4 -7 143 -30
193 -30 32 0 35 -39 29 -328 -6 -282 -19 -373 -77 -534 -32 -88 -33 -90 -70
-153 l-23 -40 31 35 c40 45 40 30 -3 -72 -42 -98 -109 -216 -176 -309 -52 -72
-56 -79 -36 -79 15 0 48 42 114 145 70 112 96 166 131 275 17 52 46 145 66
205 58 183 70 264 70 495 1 113 -1 239 -4 280 l-5 75 70 7 c39 3 125 11 193
17 68 6 187 25 265 41 77 17 144 27 148 23 12 -14 16 -155 7 -258 -16 -178
-70 -366 -162 -557 -44 -92 -65 -118 -141 -176 l-30 -23 35 17 c61 30 213 149
292 230 186 190 293 369 323 539 8 48 16 99 16 114 1 16 4 9 10 -19 11 -65 11
-505 -1 -656 -20 -259 -62 -508 -118 -707 -20 -70 -16 -85 12 -42 47 71 116
371 132 570 3 44 14 96 24 115 40 82 77 410 66 605 -3 66 -8 147 -12 180 l-5
60 86 55 c171 108 332 285 393 432 32 78 52 189 52 295 0 35 4 63 9 61 5 -1
25 -24 45 -51 l36 -47 0 -134 c0 -282 -61 -698 -147 -1006 -112 -404 -309
-888 -449 -1107 -24 -37 -29 -53 -19 -53 18 0 132 171 193 292 148 290 316
819 396 1248 67 359 81 817 31 1076 -8 43 -13 79 -11 81 2 2 31 -25 65 -60 55
-58 175 -137 187 -124 2 2 -12 28 -32 58 -45 67 -96 167 -130 256 -32 82 -84
243 -84 260 0 7 27 -3 62 -24 34 -20 82 -42 107 -50 l46 -14 33 38 c39 44 150
217 204 318 43 81 49 67 23 -57 -63 -297 -166 -1046 -205 -1488 -11 -126 -29
-522 -24 -528 14 -18 276 -48 549 -63 210 -11 479 -8 493 6 4 4 10 255 14 558
9 761 32 1109 119 1797 79 620 103 854 113 1115 4 93 11 137 31 195 14 41 28
92 32 113 10 66 18 62 85 -42 46 -70 41 -48 93 -446 165 -1269 243 -1986 306
-2820 12 -159 25 -294 30 -299 19 -21 465 27 703 75 177 35 500 133 530 160 6
5 5 29 -2 61 -6 29 -27 127 -46 218 -199 935 -272 1240 -364 1510 -32 93 -122
317 -169 420 -17 36 -33 75 -37 88 -18 56 46 1 142 -123 135 -175 248 -292
392 -406 50 -39 197 -129 212 -129 13 0 153 128 427 391 130 125 272 258 316
297 44 38 96 86 114 106 19 20 40 36 47 36 17 0 151 -192 179 -255 13 -28 34
-87 49 -133 198 -627 201 -1367 10 -2117 -37 -146 -120 -411 -149 -480 l-17
-40 21 19 c11 11 21 27 21 38 0 10 4 26 10 36 56 100 154 419 199 649 67 341
85 520 85 848 -1 258 -7 346 -44 624 -11 82 -62 295 -86 355 -8 21 -13 40 -12
42 11 11 188 -182 188 -205 0 -6 4 -11 8 -11 5 0 22 -26 38 -57 16 -32 31 -60
34 -63 22 -22 67 -155 76 -223 4 -29 13 -65 21 -81 15 -28 14 -81 -1 -121 -6
-14 -5 -16 2 -7 14 20 20 -56 18 -208 -2 -84 -7 -134 -15 -144 -8 -10 -9 -16
-1 -21 33 -21 -16 -294 -97 -535 -54 -161 -154 -393 -263 -611 -22 -43 -36
-79 -32 -79 11 0 134 221 188 335 129 279 203 509 240 755 22 141 24 433 5
568 -7 51 -11 95 -9 98 8 7 79 -221 119 -384 45 -182 91 -448 116 -677 22
-197 24 -668 5 -855 -36 -345 -153 -884 -238 -1094 -28 -68 -27 -66 -14 -66 6
0 10 4 10 9 0 6 17 45 38 89 26 55 41 78 52 75 12 -4 13 -3 1 5 -8 6 -11 18
-8 28 40 121 76 216 77 202 0 -36 20 -17 21 20 0 33 1 35 10 14 5 -13 7 -28 3
-33 -3 -5 -2 -9 1 -9 3 0 13 15 21 32 l15 33 -7 -45 c-3 -25 -12 -56 -18 -70
-7 -14 -18 -45 -25 -70 -19 -65 -65 -199 -85 -243 -15 -33 -15 -37 -1 -37 23
0 103 173 167 360 l53 155 6 -240 c8 -297 6 -275 27 -275 16 0 17 24 18 358
l0 357 36 140 c93 359 178 842 219 1244 17 158 22 275 22 501 1 265 -4 351
-29 545 -9 72 7 49 51 -70 121 -328 231 -535 399 -749 279 -358 691 -628 1078
-706 57 -12 114 -24 128 -27 15 -4 0 11 -39 38 -70 46 -205 169 -344 313 -581
598 -1084 1566 -1462 2811 -25 82 -45 160 -45 171 0 15 32 51 103 114 432 389
688 682 1034 1185 136 197 227 344 287 463 25 50 50 93 56 97 28 17 164 -134
282 -315 410 -629 666 -1337 733 -2029 26 -265 13 -1109 -25 -1646 -11 -154
-22 -314 -25 -355 l-4 -75 9 70 c10 78 33 370 50 636 21 313 27 301 29 -51 2
-595 43 -1170 116 -1615 56 -344 86 -537 99 -645 19 -150 44 -405 43 -440 -1
-14 0 -91 1 -172 2 -117 5 -148 16 -148 18 0 29 123 16 170 -15 51 -5 66 66
106 35 19 66 39 69 44 7 11 -27 70 -40 70 -5 -1 -28 -12 -50 -25 -54 -34 -65
-32 -65 10 0 30 6 38 41 60 22 15 39 29 37 33 -2 4 -10 19 -17 35 -17 33 -41
36 -41 5 0 -22 0 -22 -13 2 -22 42 -26 68 -13 86 7 9 12 26 11 38 -2 15 -1 16
2 3 3 -13 10 -16 21 -12 48 20 47 21 156 -170 59 -102 104 -190 102 -194 -11
-17 -68 -35 -75 -23 -4 7 -35 -5 -89 -35 l-82 -47 0 -48 c0 -26 2 -48 4 -48 2
0 82 45 177 100 174 99 174 100 191 79 10 -12 18 -27 18 -34 0 -8 -66 -51
-146 -97 -102 -58 -140 -84 -125 -86 12 -2 21 -8 21 -13 0 -5 55 -9 125 -9 93
0 125 3 125 13 0 8 4 7 10 -3 5 -8 10 -10 10 -4 0 7 16 15 36 18 19 4 42 10
50 13 9 3 14 -2 14 -16 0 -16 6 -21 25 -21 31 0 31 7 4 37 l-22 22 24 21 c13
11 40 30 59 42 75 48 75 48 35 117 l-36 62 -57 -32 c-31 -18 -63 -37 -71 -43
-10 -8 -18 -5 -32 13 -31 39 -24 53 50 95 l69 38 -24 42 c-13 22 -24 46 -24
51 0 11 68 51 73 44 2 -2 14 -22 27 -44 13 -22 25 -42 26 -43 1 -2 34 15 73
38 39 22 75 39 80 36 10 -7 35 -65 30 -70 -2 -2 -34 -20 -71 -40 -38 -21 -68
-39 -68 -41 0 -4 60 -107 65 -113 2 -2 33 19 69 47 36 28 70 51 75 51 8 0 41
-43 41 -54 0 -4 -80 -70 -135 -112 -72 -54 -102 -76 -115 -87 -8 -7 -30 -23
-47 -35 -18 -13 -33 -28 -33 -33 0 -5 270 -9 690 -9 l690 0 0 389 0 390 -78
-45 c-143 -80 -171 -71 -267 91 -10 16 -22 11 -122 -46 l-112 -64 16 -24 c17
-26 12 -34 -39 -62 -21 -11 -5 -34 -183 275 -106 185 -134 240 -124 247 8 5
74 43 146 85 73 41 133 78 133 82 0 4 -11 25 -25 47 -13 22 -25 43 -25 48 0 7
60 47 72 47 3 0 19 -22 35 -50 l29 -49 149 85 c135 77 151 84 162 68 7 -9 61
-102 120 -206 l108 -190 3 1633 2 1632 -31 55 c-17 30 -29 55 -27 56 2 1 15
10 31 19 l27 17 0 493 0 493 -42 15 c-36 12 -43 18 -40 38 1 16 -34 88 -99
203 -56 98 -102 178 -104 178 -1 0 -23 -11 -47 -25 -48 -27 -52 -26 -77 22
-10 20 -5 25 71 68 78 45 82 47 95 29 8 -11 57 -94 110 -187 53 -92 100 -170
104 -173 5 -3 14 7 19 21 13 34 13 96 0 92 -6 -1 -19 12 -30 30 l-21 31 31 22
c28 20 30 25 30 91 l0 69 -40 -20 -40 -20 -19 32 c-11 17 -18 35 -15 39 2 4
29 21 59 38 l55 31 0 70 c0 39 -2 70 -4 70 -3 0 -47 -25 -100 -55 -52 -30 -96
-55 -98 -55 -6 0 -41 70 -37 74 2 1 34 20 72 40 37 21 67 39 67 41 0 2 -31 16
-70 31 -38 15 -70 33 -70 40 0 17 22 64 29 63 3 0 40 -12 81 -27 76 -28 82
-34 64 -77 -7 -19 -6 -18 27 2 l34 22 3 6002 c2 5713 1 6001 -15 5994 -26 -9
-310 -174 -358 -206 -48 -33 -975 -569 -984 -569 -8 0 -61 95 -61 108 0 11 38
28 53 24 5 -2 146 77 313 174 l305 176 -27 47 c-15 25 -28 48 -30 49 -1 2
-124 -66 -272 -152 -148 -86 -274 -156 -279 -156 -11 0 -53 63 -53 79 0 4 124
79 275 166 l274 159 -31 55 c-17 31 -32 57 -33 59 -1 1 -89 -48 -194 -109
-135 -78 -191 -115 -187 -125 3 -8 9 -20 12 -28 4 -9 -10 -23 -39 -40 -24 -14
-48 -26 -54 -26 -10 0 -323 532 -323 548 0 4 108 69 240 146 132 76 240 143
240 148 0 15 -42 88 -51 88 -4 0 -148 -81 -320 -181 -172 -100 -318 -183 -325
-186 -14 -5 -64 74 -64 100 0 10 6 18 13 19 6 0 17 2 24 2 6 1 147 80 314 176
l302 175 -111 3 -111 3 -68 -42 c-37 -23 -122 -75 -188 -116 l-120 -73 -25 28
c-68 76 -72 63 32 122 51 29 102 59 113 67 16 11 -1427 13 -8633 13 l-8652 0
0 -670z m16905 415 c14 -25 24 -49 21 -54 -3 -4 -98 -61 -211 -126 -113 -65
-208 -122 -210 -126 -5 -6 72 -149 80 -149 2 0 81 45 176 100 96 55 178 100
184 100 5 0 66 -97 133 -216 88 -153 121 -218 114 -227 -19 -22 -105 -63 -109
-51 -18 50 -13 52 -348 -142 -176 -102 -327 -189 -335 -195 -10 -6 5 -7 44 -3
l58 6 -4 -61 c-3 -51 -2 -61 10 -56 8 3 206 116 440 251 233 134 426 243 427
242 23 -30 56 -101 49 -108 -5 -5 -76 -47 -159 -95 -82 -48 -154 -91 -159 -95
-5 -5 -12 -48 -17 -97 -4 -48 -20 -128 -34 -177 -14 -49 -24 -90 -23 -91 2 -1
113 25 248 57 135 32 253 58 263 58 15 0 17 -10 17 -79 l0 -78 -37 -7 c-82
-13 -541 -104 -565 -112 -10 -3 -49 -47 -88 -97 -78 -104 -187 -218 -305 -322
-108 -95 -181 -155 -190 -155 -11 0 -124 74 -124 82 -1 3 23 23 52 44 139 101
341 282 410 368 l31 38 -30 -6 c-16 -3 -40 -8 -53 -11 -23 -4 -145 -30 -285
-60 l-58 -12 7 86 c4 47 9 94 11 104 1 9 -1 17 -6 17 -5 0 -83 -43 -173 -95
-91 -52 -170 -95 -176 -95 -13 0 -61 74 -61 92 1 7 96 67 212 133 115 66 212
125 215 131 2 6 3 47 1 92 l-3 81 -133 -77 c-134 -77 -136 -79 -118 -123 6
-12 -7 -24 -49 -48 -32 -18 -58 -31 -59 -29 -3 3 -247 429 -252 439 -2 3 78
52 177 108 98 57 179 106 179 109 0 3 -18 38 -41 78 l-41 71 -214 -123 c-117
-68 -217 -124 -221 -124 -8 0 -66 100 -61 105 16 15 1355 781 1360 779 3 -2
18 -24 33 -49z m-1958 25 c3 -11 2 -11 -4 -3 -5 7 -42 14 -88 16 l-80 3 84 0
c66 -1 85 -4 88 -16z m-224 3 c-24 -2 -62 -2 -85 0 -24 2 -5 4 42 4 47 0 66
-2 43 -4z m-195 -10 c-10 -2 -28 -2 -40 0 -13 2 -5 4 17 4 22 1 32 -1 23 -4z
m-155 -10 c-7 -2 -19 -2 -25 0 -7 3 -2 5 12 5 14 0 19 -2 13 -5z m-85 -10
c-10 -2 -28 -2 -40 0 -13 2 -5 4 17 4 22 1 32 -1 23 -4z m659 -475 c-1 -90 -3
-17 -3 162 0 179 2 252 3 163 2 -90 2 -236 0 -325z m-800 466 c-3 -3 -12 -4
-19 -1 -8 3 -5 6 6 6 11 1 17 -2 13 -5z m-80 -10 c-3 -3 -12 -4 -19 -1 -8 3
-5 6 6 6 11 1 17 -2 13 -5z m-84 -11 c-7 -2 -19 -2 -25 0 -7 3 -2 5 12 5 14 0
19 -2 13 -5z m-156 -19 c-3 -3 -12 -4 -19 -1 -8 3 -5 6 6 6 11 1 17 -2 13 -5z
m-3771 -146 c4 -5 -77 -8 -180 -8 -103 0 -185 4 -182 9 7 10 351 9 362 -1z
m-651 -18 c-3 -5 -16 -10 -28 -10 -18 0 -19 2 -7 10 20 13 43 13 35 0z m808 3
c-7 -2 -19 -2 -25 0 -7 3 -2 5 12 5 14 0 19 -2 13 -5z m-1053 -23 c0 -5 -10
-10 -22 -10 -19 0 -20 2 -8 10 19 13 30 13 30 0z m97 4 c-3 -3 -12 -4 -19 -1
-8 3 -5 6 6 6 11 1 17 -2 13 -5z m-292 -24 c3 -5 1 -10 -4 -10 -6 0 -11 5 -11
10 0 6 2 10 4 10 3 0 8 -4 11 -10z m-150 -20 c-3 -5 -10 -10 -16 -10 -5 0 -9
5 -9 10 0 6 7 10 16 10 8 0 12 -4 9 -10z m2505 -272 c0 -5 -9 -4 -20 2 -11 6
-20 12 -20 14 0 2 9 2 20 -1 11 -3 20 -9 20 -15z m241 -156 c-7 -2 -18 1 -23
6 -8 8 -4 9 13 5 13 -4 18 -8 10 -11z m3376 -84 c-2 -13 -4 -3 -4 22 0 25 2
35 4 23 2 -13 2 -33 0 -45z m-10 -145 c-2 -16 -4 -3 -4 27 0 30 2 43 4 28 2
-16 2 -40 0 -55z m393 1 c30 -55 53 -35 -216 -190 -132 -75 -204 -122 -204
-133 0 -14 -2 -14 -10 -1 -14 21 -12 122 3 140 7 8 30 25 52 37 22 12 105 60
185 107 80 46 150 85 155 85 6 1 22 -20 35 -45z m-403 -121 c-2 -16 -4 -5 -4
22 0 28 2 40 4 28 2 -13 2 -35 0 -50z m639 -93 c40 -69 73 -130 74 -137 0 -6
-25 -25 -56 -43 -45 -25 -59 -29 -65 -18 -5 7 -29 48 -54 90 l-45 77 -242
-140 c-134 -76 -244 -143 -246 -149 -2 -5 40 -84 93 -176 79 -136 94 -169 83
-179 -19 -18 -97 -59 -102 -54 -2 2 -39 65 -82 139 l-78 135 3 89 c4 146 -9
134 326 327 160 93 296 167 304 166 7 -1 46 -58 87 -127z m-669 -182 c-3 -8
-6 -5 -6 6 -1 11 2 17 5 13 3 -3 4 -12 1 -19z m520 -18 c13 -21 20 -41 15 -43
-181 -107 -344 -197 -350 -193 -10 6 -46 75 -41 80 13 12 336 195 344 195 6 1
20 -17 32 -39z m94 -161 c17 -34 18 -43 7 -51 -50 -33 -328 -188 -336 -188 -7
0 -21 18 -32 40 l-20 39 92 54 c193 113 253 147 260 147 4 0 17 -19 29 -41z
m348 -38 c19 -35 21 -45 10 -52 -8 -5 -160 -93 -339 -196 -179 -102 -327 -188
-329 -189 -6 -5 21 -104 30 -110 5 -3 136 67 290 156 154 89 285 160 292 157
17 -7 215 -357 223 -394 15 -76 -35 -137 -171 -208 l-76 -40 -44 48 c-25 27
-45 52 -45 56 0 4 36 24 80 44 44 21 87 48 95 61 20 30 13 49 -66 183 l-54 92
-120 -69 c-66 -39 -119 -75 -117 -81 3 -11 152 -273 179 -316 14 -21 12 -24
-34 -52 -26 -17 -52 -31 -58 -31 -5 1 -52 75 -104 166 -52 90 -97 167 -102
169 -4 3 -59 -25 -122 -62 l-114 -66 93 -162 c51 -89 96 -168 99 -176 6 -16
-88 -74 -104 -64 -6 3 -51 77 -101 165 -50 88 -95 162 -99 164 -7 5 -208 -107
-228 -127 -8 -9 14 -55 94 -192 58 -99 107 -185 110 -191 6 -15 -106 -79 -117
-68 -4 5 -58 96 -119 202 -90 157 -111 201 -111 233 0 42 28 102 49 107 13 3
358 198 373 211 4 4 -1 32 -10 63 l-18 57 -139 -80 c-77 -44 -152 -88 -166
-99 -43 -30 -55 -13 -39 54 7 31 19 61 27 67 7 6 14 23 14 38 1 18 3 20 6 8 3
-10 11 -16 18 -14 7 3 239 136 516 296 277 160 509 289 514 288 6 -2 21 -23
34 -46z m-9619 -55 c0 -2 -8 -10 -17 -17 -16 -13 -17 -12 -4 4 13 16 21 21 21
13z m8607 -68 c-3 -8 -6 -5 -6 6 -1 11 2 17 5 13 3 -3 4 -12 1 -19z m-8687
-22 c0 -2 -8 -10 -17 -17 -16 -13 -17 -12 -4 4 13 16 21 21 21 13z m8680 -36
c0 -5 -8 -10 -17 -10 -15 0 -16 2 -3 10 19 12 20 12 20 0z m-8750 -44 c0 -2
-8 -10 -17 -17 -16 -13 -17 -12 -4 4 13 16 21 21 21 13z m8737 -18 c-3 -8 -6
-5 -6 6 -1 11 2 17 5 13 3 -3 4 -12 1 -19z m-8777 -32 c0 -2 -8 -10 -17 -17
-16 -13 -17 -12 -4 4 13 16 21 21 21 13z m8858 -36 l22 -40 -37 -23 c-21 -13
-58 -34 -82 -46 l-44 -23 7 27 c4 15 10 41 13 59 6 28 33 81 33 63 0 -5 10 -1
22 7 33 23 41 20 66 -24z m-8898 -14 c0 -2 -8 -10 -17 -17 -16 -13 -17 -12 -4
4 13 16 21 21 21 13z m-155 -216 c-9 -16 -21 -30 -28 -30 -8 0 -9 3 -1 8 6 4
16 17 23 30 6 12 14 22 17 22 2 0 -2 -13 -11 -30z m151 -92 c-89 -123 -274
-405 -333 -508 -126 -221 -136 -241 -277 -555 -26 -59 -92 -257 -135 -405 -33
-115 -101 -439 -101 -482 0 -44 -17 -41 -51 9 -198 293 -475 527 -834 707
-378 188 -766 323 -1000 348 -110 11 -145 8 -145 -11 0 -6 31 -56 68 -113 38
-57 134 -202 214 -323 228 -347 397 -561 628 -799 305 -314 663 -593 955 -745
l70 -36 -3 -155 c-4 -187 -7 -193 -78 -155 -459 251 -880 603 -1242 1040 -41
50 -84 101 -96 115 -24 28 -99 123 -172 220 -144 187 -397 558 -563 825 -34
55 -91 145 -126 200 -36 55 -65 106 -65 112 0 17 50 41 196 96 252 94 570 176
1333 342 565 124 958 202 1166 234 77 12 194 34 260 48 122 27 269 49 338 52
l38 1 -45 -62z m8731 -120 c-3 -8 -6 -5 -6 6 -1 11 2 17 5 13 3 -3 4 -12 1
-19z m-10132 -38 c-3 -5 -10 -10 -16 -10 -5 0 -9 5 -9 10 0 6 7 10 16 10 8 0
12 -4 9 -10z m-50 -10 c-3 -5 -11 -10 -16 -10 -6 0 -7 5 -4 10 3 6 11 10 16
10 6 0 7 -4 4 -10z m-55 -10 c0 -5 -5 -10 -11 -10 -5 0 -7 5 -4 10 3 6 8 10
11 10 2 0 4 -4 4 -10z m-703 -156 c-3 -3 -12 -4 -19 -1 -8 3 -5 6 6 6 11 1 17
-2 13 -5z m-90 -20 c-3 -3 -12 -4 -19 -1 -8 3 -5 6 6 6 11 1 17 -2 13 -5z
m-40 -10 c-3 -3 -12 -4 -19 -1 -8 3 -5 6 6 6 11 1 17 -2 13 -5z m-50 -10 c-3
-3 -12 -4 -19 -1 -8 3 -5 6 6 6 11 1 17 -2 13 -5z m-40 -10 c-3 -3 -12 -4 -19
-1 -8 3 -5 6 6 6 11 1 17 -2 13 -5z m11110 -16 c-3 -8 -6 -5 -6 6 -1 11 2 17
5 13 3 -3 4 -12 1 -19z m-10 -50 c-3 -8 -6 -5 -6 6 -1 11 2 17 5 13 3 -3 4
-12 1 -19z m3764 -378 c126 -217 229 -398 229 -402 0 -10 -91 -58 -112 -58
-10 0 -21 6 -24 14 -8 22 -69 -9 -464 -238 -338 -196 -355 -207 -353 -233 2
-24 -6 -32 -52 -60 l-55 -32 -14 22 c-8 12 -77 130 -154 262 -77 132 -164 281
-194 330 -104 174 -109 182 -95 192 6 6 85 51 174 102 90 51 165 95 167 99 2
4 -2 43 -10 86 -9 43 -13 84 -11 91 5 12 123 42 132 34 2 -3 7 -34 11 -69 3
-36 7 -66 8 -67 1 -1 130 72 286 162 157 91 289 163 294 162 5 -2 111 -180
237 -397z m-15630 199 c-46 -21 -86 -39 -90 -38 -9 1 152 78 164 78 6 0 -28
-18 -74 -40z m-77 -164 c9 -14 13 -25 8 -25 -5 0 -14 11 -20 25 -6 14 -10 25
-8 25 2 0 11 -11 20 -25z m66 -120 c0 -5 -5 -3 -10 5 -5 8 -10 20 -10 25 0 6
5 3 10 -5 5 -8 10 -19 10 -25z m385 5 c3 -5 1 -10 -4 -10 -6 0 -11 5 -11 10 0
6 2 10 4 10 3 0 8 -4 11 -10z m239 -36 c10 -2 26 -10 35 -17 9 -8 36 -14 61
-14 25 0 56 -6 70 -13 14 -8 28 -13 32 -12 14 3 408 -151 466 -183 15 -8 79
-40 142 -70 63 -31 122 -63 131 -71 8 -8 19 -14 24 -14 7 0 47 -24 175 -109
135 -89 293 -229 374 -331 28 -36 59 -74 69 -85 27 -29 106 -151 117 -180 5
-14 7 -30 5 -37 -11 -29 -46 -446 -51 -608 -3 -96 -7 -181 -10 -188 -4 -15
-85 24 -218 106 -254 157 -506 360 -756 612 -235 236 -401 442 -645 805 -71
105 -145 213 -165 240 -31 43 -100 159 -100 170 0 1 11 2 25 1 14 0 25 -5 25
-9 0 -5 5 -5 12 -1 6 4 30 6 54 6 23 -1 46 3 49 9 4 6 18 8 34 4 14 -4 34 -9
45 -11z m13550 -339 c15 -25 27 -48 25 -50 -22 -21 -1034 -594 -1039 -588 -4
4 -19 29 -34 54 l-26 46 222 128 c123 70 229 133 236 138 9 7 -4 19 -50 44
-35 19 -73 41 -85 49 l-23 14 36 55 c20 30 39 55 42 55 7 0 174 -90 189 -102
9 -7 10 -15 2 -30 -6 -11 -9 -21 -7 -23 2 -1 83 44 182 101 98 57 184 104 190
104 6 0 29 12 51 25 22 14 45 25 50 25 6 0 23 -20 39 -45z m1810 14 c135 -39
239 -74 255 -85 14 -11 13 -17 -9 -65 -13 -30 -27 -58 -31 -63 -4 -5 -56 12
-116 36 -59 25 -133 53 -163 63 -78 25 -82 31 -56 88 11 26 27 47 35 47 8 0
46 -9 85 -21z m-75 -266 c49 -155 39 -228 -46 -304 -21 -19 -138 -92 -260
-162 -261 -150 -301 -164 -377 -127 -28 13 -60 39 -77 63 -38 52 -163 267
-158 271 2 1 29 17 61 35 l56 31 72 -125 c39 -69 80 -130 90 -135 42 -23 77
-9 275 105 109 63 207 124 218 136 40 43 37 101 -14 226 -12 30 -19 56 -17 59
7 6 86 21 119 23 24 1 28 -5 58 -96z m-1684 -29 c15 -25 23 -50 19 -54 -15
-13 -866 -502 -868 -498 -2 2 -16 25 -31 52 l-29 49 22 15 c69 46 848 489 853
486 4 -2 19 -25 34 -50z m1214 6 c79 -22 146 -42 149 -45 6 -6 -22 -101 -36
-123 -7 -10 -17 -9 -53 4 -24 9 -91 32 -149 50 -95 30 -105 35 -103 56 2 29
31 98 41 98 4 0 72 -18 151 -40z m-2390 -191 c11 -52 22 -114 25 -139 3 -25
10 -80 16 -123 l10 -79 300 -520 c166 -287 299 -526 297 -532 -3 -6 -27 -24
-55 -39 -38 -21 -52 -24 -59 -14 -5 6 -110 186 -233 400 -123 213 -226 387
-230 387 -4 0 -8 -37 -9 -82 -1 -46 -4 -92 -6 -103 -2 -11 -4 -32 -4 -47 -1
-16 -5 -28 -10 -28 -5 0 -34 21 -66 47 l-57 47 7 95 c6 85 -7 357 -21 451 -15
100 -46 263 -55 289 -18 51 -9 63 56 81 33 9 64 13 68 10 4 -4 16 -49 26 -101z
m1309 -48 c13 -23 22 -47 19 -54 -8 -21 -845 -500 -862 -493 -16 6 -62 92 -54
100 16 16 856 495 864 493 6 -2 21 -22 33 -46z m551 -148 c15 -89 28 -192 36
-275 l7 -66 -29 -6 c-15 -3 -47 -8 -69 -11 l-41 -6 -7 83 c-8 93 -34 281 -42
303 -6 14 9 21 71 31 22 3 42 8 44 10 13 12 20 -3 30 -63z m-3009 -67 c0 -12
-5 -7 -19 24 -11 24 -11 24 3 6 9 -11 16 -24 16 -30z m2708 -250 c84 -144 152
-266 152 -269 0 -7 -104 -67 -116 -67 -5 0 -19 18 -32 40 l-23 40 -48 -27
c-26 -16 -160 -93 -298 -172 l-250 -144 24 -43 24 -43 -38 -24 c-78 -49 -81
-50 -97 -25 -32 50 -296 512 -296 518 1 7 822 480 835 480 6 0 79 -119 163
-264z m-13767 147 c13 -16 12 -17 -3 -4 -10 7 -18 15 -18 17 0 8 8 3 21 -13z
m11698 -17 c25 -7 47 -18 49 -24 8 -26 -145 -315 -245 -463 l-24 -37 51 -90
c28 -49 60 -98 70 -107 29 -26 86 -14 175 36 90 51 140 97 147 133 6 28 -20
111 -58 193 -13 28 -24 56 -24 61 0 5 20 12 45 15 25 4 56 9 69 13 22 5 26 -1
61 -98 83 -224 59 -280 -177 -415 -135 -77 -174 -93 -225 -93 -77 0 -106 34
-263 305 -84 146 -127 211 -133 202 -6 -8 -7 -5 -3 7 4 11 3 22 -1 25 -18 12
-92 208 -91 237 0 17 -3 37 -7 44 -5 9 -4 11 3 6 7 -4 12 -14 12 -22 0 -13 6
-12 35 6 l34 21 24 -38 c13 -21 59 -100 103 -175 43 -76 81 -138 85 -138 14 0
146 254 194 373 17 41 27 44 94 23z m-11648 -43 c13 -16 12 -17 -3 -4 -10 7
-18 15 -18 17 0 8 8 3 21 -13z m81 -98 c11 -21 8 -18 -32 30 -24 29 -24 29 -2
10 13 -11 28 -29 34 -40z m7221 -310 c111 -166 254 -314 384 -397 45 -29 82
-56 83 -59 0 -3 -53 -25 -117 -49 -65 -24 -181 -72 -258 -107 -77 -36 -148
-67 -157 -70 -16 -5 -18 5 -18 108 0 143 -16 369 -36 519 -14 108 -49 310 -60
355 -3 11 27 -38 67 -110 39 -71 90 -157 112 -190z m-7182 268 c13 -16 12 -17
-3 -4 -17 13 -22 21 -14 21 2 0 10 -8 17 -17z m219 -228 c80 -80 142 -145 140
-145 -3 0 -70 65 -150 145 -80 80 -142 145 -140 145 3 0 70 -65 150 -145z
m8651 36 c81 -81 -17 -200 -120 -146 -61 31 -65 121 -8 156 47 28 93 25 128
-10z m-265 -73 c51 -24 59 -105 15 -149 -40 -39 -89 -40 -132 -1 -55 49 -38
126 35 157 30 13 43 12 82 -7z m2461 0 c-3 -8 -6 -5 -6 6 -1 11 2 17 5 13 3
-3 4 -12 1 -19z m-1942 -83 c27 -26 33 -72 14 -107 -15 -29 -72 -50 -103 -39
-89 34 -66 171 29 171 25 0 44 -8 60 -25z m1972 -47 c-3 -8 -6 -5 -6 6 -1 11
2 17 5 13 3 -3 4 -12 1 -19z m-10677 -23 c13 -14 21 -25 18 -25 -2 0 -15 11
-28 25 -13 14 -21 25 -18 25 2 0 15 -11 28 -25z m10687 -17 c-3 -8 -6 -5 -6 6
-1 11 2 17 5 13 3 -3 4 -12 1 -19z m-2198 -17 c36 -26 63 -90 55 -131 -10 -46
-57 -81 -107 -78 -35 2 -44 -2 -71 -35 -77 -92 -185 -32 -174 97 8 90 37 126
137 163 47 17 124 10 160 -16z m-446 -5 c102 -42 117 -164 27 -211 -43 -22
-84 -19 -119 11 -57 48 -51 156 12 194 38 24 39 24 80 6z m2654 -28 c-3 -8 -6
-5 -6 6 -1 11 2 17 5 13 3 -3 4 -12 1 -19z m-10606 -15 c13 -16 12 -17 -3 -4
-17 13 -22 21 -14 21 2 0 10 -8 17 -17z m10616 -35 c-3 -8 -6 -5 -6 6 -1 11 2
17 5 13 3 -3 4 -12 1 -19z m10 -50 c-3 -8 -6 -5 -6 6 -1 11 2 17 5 13 3 -3 4
-12 1 -19z m123 -54 c18 -30 28 -59 24 -63 -63 -53 -113 -91 -121 -91 -14 0
-33 102 -26 143 3 24 9 34 14 26 5 -9 16 -5 39 14 17 15 33 27 35 27 2 0 18
-25 35 -56z m635 -77 c14 -24 25 -48 25 -54 0 -6 -152 -98 -337 -204 -185
-107 -342 -200 -349 -206 -10 -11 -16 -10 -28 3 -19 19 -22 108 -3 125 19 18
641 377 654 378 7 1 24 -19 38 -42z m-4205 -35 c0 -4 -30 -18 -67 -31 -38 -13
-128 -48 -202 -77 -74 -30 -137 -52 -139 -49 -8 8 137 72 268 119 135 48 140
50 140 38z m3487 -74 c-3 -8 -6 -5 -6 6 -1 11 2 17 5 13 3 -3 4 -12 1 -19z
m-10057 -86 l105 -57 3 -135 c4 -183 -30 -529 -79 -805 -11 -60 -23 -112 -26
-115 -3 -3 -3 11 1 30 7 34 -9 74 -90 232 -8 14 -14 35 -14 46 0 11 -7 27 -15
36 -8 8 -15 24 -15 36 0 11 -7 32 -17 46 -14 22 -16 61 -16 299 0 236 3 278
17 300 9 13 16 35 16 47 0 13 7 34 16 46 12 18 13 26 4 37 -21 25 1 17 110
-43z m10067 16 c-3 -7 -5 -2 -5 12 0 14 2 19 5 13 2 -7 2 -19 0 -25z m1054
-24 l29 -50 -500 -288 c-275 -158 -500 -293 -500 -300 -1 -6 -10 0 -21 13 -15
19 -19 36 -17 74 l3 50 480 277 c264 153 484 277 489 276 5 -1 22 -25 37 -52z
m-1044 -36 c-3 -8 -6 -5 -6 6 -1 11 2 17 5 13 3 -3 4 -12 1 -19z m10 -70 c-3
-8 -6 -5 -6 6 -1 11 2 17 5 13 3 -3 4 -12 1 -19z m30 -240 c-3 -8 -6 -5 -6 6
-1 11 2 17 5 13 3 -3 4 -12 1 -19z m10 -100 c-3 -7 -5 -2 -5 12 0 14 2 19 5
13 2 -7 2 -19 0 -25z m30 -300 c-3 -7 -5 -2 -5 12 0 14 2 19 5 13 2 -7 2 -19
0 -25z m10 -100 c-3 -8 -6 -5 -6 6 -1 11 2 17 5 13 3 -3 4 -12 1 -19z m-9899
-83 c22 -152 65 -321 138 -545 94 -291 225 -770 334 -1225 27 -110 64 -258 84
-330 91 -340 171 -623 213 -755 74 -233 91 -310 102 -457 15 -194 14 -363 -4
-500 -17 -130 -37 -181 -91 -237 -43 -45 -28 -48 22 -4 72 63 163 212 195 316
15 51 22 46 39 -33 17 -80 33 -105 27 -42 -5 50 1 59 20 28 13 -20 294 -696
423 -1014 39 -97 70 -186 68 -198 -2 -16 -29 -31 -118 -68 -333 -140 -674
-318 -894 -468 l-109 -75 7 39 c36 216 50 372 50 588 1 264 -15 389 -74 575
-12 37 -20 107 -24 215 -4 88 -13 216 -20 285 -14 132 -87 523 -93 504 -2 -6
10 -83 26 -170 42 -225 58 -352 72 -564 10 -165 8 -471 -6 -650 -2 -30 -7
-104 -10 -165 -17 -319 -71 -552 -207 -900 -37 -93 -61 -139 -86 -165 -138
-140 -434 -759 -526 -1100 -65 -243 -81 -290 -133 -399 -62 -130 -183 -425
-236 -576 -19 -55 -63 -165 -97 -245 -167 -393 -246 -794 -211 -1075 10 -86
10 -93 -19 -196 -127 -459 -167 -928 -115 -1349 10 -74 18 -153 18 -175 1 -41
-38 -279 -49 -297 -11 -17 -22 12 -29 76 -7 55 -21 126 -45 226 -88 360 -143
804 -139 1111 1 79 -2 102 -20 136 -15 29 -21 61 -21 103 0 56 -2 61 -26 70
-56 22 -111 10 -125 -26 -9 -26 -33 -32 -46 -12 -8 14 -7 208 2 293 31 295 82
570 121 648 15 29 53 100 85 158 33 59 77 150 99 204 22 54 63 140 90 192 l51
93 -105 -70 c-57 -39 -133 -96 -168 -128 -65 -58 -195 -210 -191 -223 1 -4 -4
-13 -12 -19 -9 -8 -15 -8 -15 -2 0 6 5 13 10 15 6 3 7 5 2 4 -5 -1 -26 -15
-47 -32 -49 -40 -105 -91 -80 -74 18 13 19 13 6 -3 -7 -10 -17 -15 -22 -13 -4
3 -36 -15 -71 -41 -112 -82 -290 -159 -428 -184 -99 -18 -263 -14 -378 10 -57
11 -108 17 -115 14 -7 -4 -9 -3 -4 1 8 9 -112 59 -121 50 -3 -3 0 -5 6 -5 7 0
12 -5 12 -10 0 -7 -7 -7 -20 0 -11 6 -17 16 -14 22 4 6 3 8 -4 4 -6 -3 -16 0
-24 7 -7 8 -21 13 -31 11 -10 -1 -17 4 -17 14 0 15 -2 15 -10 2 -9 -14 -15 -7
-11 14 1 5 -5 6 -14 3 -8 -4 -15 -1 -15 6 0 19 -57 50 -63 35 -3 -8 -6 -6 -6
4 -1 21 -57 53 -66 38 -3 -6 -11 -10 -16 -10 -6 0 -8 4 -5 9 4 5 0 12 -6 14
-10 4 -10 8 1 15 7 5 10 15 7 21 -10 15 3 14 36 -3 15 -8 36 -12 48 -9 11 3
20 1 20 -5 0 -6 9 -14 20 -17 11 -4 17 -11 14 -17 -5 -7 2 -9 22 -4 19 4 24 3
15 -2 -16 -11 87 -35 224 -53 213 -27 472 26 679 141 101 56 242 161 239 178
-1 5 5 16 15 24 15 12 16 11 3 -4 -22 -28 3 -21 30 9 13 14 18 23 11 19 -11
-7 -11 -4 0 13 7 12 19 19 25 16 7 -2 13 3 13 13 0 15 2 15 10 2 9 -13 14 -7
11 13 0 4 5 7 12 7 8 0 22 10 33 23 l19 22 -25 -20 -25 -20 19 22 c10 12 22
21 26 20 6 -2 83 79 154 162 19 22 19 24 3 18 -13 -5 -17 -3 -14 5 2 7 11 12
20 12 9 -1 33 19 53 45 21 25 52 62 71 82 30 32 34 42 38 105 11 198 148 634
301 963 48 102 49 105 34 96 -6 -3 -7 1 -4 9 3 9 11 13 17 9 6 -4 8 0 4 11 -4
10 -3 15 3 11 12 -8 43 52 34 67 -5 7 -3 8 6 3 10 -6 12 -4 7 9 -5 11 -3 15 5
10 8 -5 9 -2 5 10 -4 9 -3 15 2 12 4 -3 18 13 31 36 14 26 18 38 9 34 -10 -5
-10 -4 1 6 8 7 16 20 18 28 2 8 10 20 18 27 9 6 15 14 14 17 -2 11 69 123 87
137 15 11 15 10 -1 -9 -23 -27 -6 -30 18 -3 10 11 15 25 10 32 -4 7 -3 10 4 5
16 -10 55 44 42 59 -8 9 -6 14 5 19 11 4 14 2 9 -6 -4 -7 -3 -8 4 -4 35 22
139 237 217 452 96 264 261 956 320 1339 8 50 30 185 49 300 103 604 188 1381
211 1915 3 74 8 164 11 200 l5 66 -67 -1 -67 0 -52 -89 c-54 -95 -194 -286
-273 -376 l-49 -54 -64 28 c-35 16 -67 31 -71 35 -4 3 12 26 35 51 146 154
317 385 317 427 0 4 -28 17 -63 27 -96 29 -286 129 -339 178 -57 53 -54 52
-94 27 -36 -22 -37 -22 -51 -3 -8 10 -23 35 -33 55 l-18 35 371 214 c205 118
386 222 403 232 l32 19 21 -33 21 -33 0 49 c0 27 3 46 8 42 4 -4 7 -163 7
-353 0 -268 3 -347 13 -350 9 -4 12 77 12 380 0 211 -3 405 -6 431 -6 42 -9
45 -23 33 -31 -27 -196 -115 -227 -122 -36 -7 -98 15 -126 45 -10 11 -48 70
-84 132 -36 62 -69 116 -73 121 -4 4 -86 -38 -183 -94 l-176 -101 38 -82 c71
-150 73 -290 6 -429 -40 -84 -34 -81 -114 -57 l-71 22 29 57 c32 63 60 159 60
206 0 53 -27 126 -84 225 -40 71 -51 98 -42 107 14 14 588 345 591 341 2 -2
38 -64 80 -138 97 -169 120 -200 148 -200 12 0 63 24 112 53 l90 52 6 55 6 55
2 -70 c1 -38 8 -83 16 -100 l13 -30 1 30 c2 64 -30 412 -51 553 -12 81 -22
167 -22 192 0 49 65 304 75 292 3 -4 11 -43 17 -87z m9909 -42 c-3 -10 -5 -4
-5 12 0 17 2 24 5 18 2 -7 2 -21 0 -30z m10 -105 c-3 -7 -5 -2 -5 12 0 14 2
19 5 13 2 -7 2 -19 0 -25z m-10190 -70 c-3 -8 -6 -5 -6 6 -1 11 2 17 5 13 3
-3 4 -12 1 -19z m-10 -50 c-3 -7 -5 -2 -5 12 0 14 2 19 5 13 2 -7 2 -19 0 -25z
m10210 -15 c-3 -10 -5 -2 -5 17 0 19 2 27 5 18 2 -10 2 -26 0 -35z m-10046 4
c-8 -8 -11 -7 -11 4 0 20 13 34 18 19 3 -7 -1 -17 -7 -23z m-174 -29 c-3 -8
-6 -5 -6 6 -1 11 2 17 5 13 3 -3 4 -12 1 -19z m190 -10 c-3 -8 -6 -5 -6 6 -1
11 2 17 5 13 3 -3 4 -12 1 -19z m10040 -55 c-3 -10 -5 -4 -5 12 0 17 2 24 5
18 2 -7 2 -21 0 -30z m-10030 -60 c-3 -10 -5 -2 -5 17 0 19 2 27 5 18 2 -10 2
-26 0 -35z m10040 -65 c-2 -13 -4 -5 -4 17 -1 22 1 32 4 23 2 -10 2 -28 0 -40z
m-10148 -7 c-6 -18 -13 -30 -15 -28 -2 2 1 18 7 36 6 18 13 30 15 28 2 -2 -1
-18 -7 -36z m-38 -92 c-11 -24 -20 -41 -20 -37 -1 12 31 89 35 85 3 -2 -4 -24
-15 -48z m10196 14 c-3 -10 -5 -4 -5 12 0 17 2 24 5 18 2 -7 2 -21 0 -30z
m-10030 -50 c-3 -10 -5 -2 -5 17 0 19 2 27 5 18 2 -10 2 -26 0 -35z m-196 -40
c-12 -20 -14 -14 -5 12 4 9 9 14 11 11 3 -2 0 -13 -6 -23z m10236 -20 c-3 -10
-5 -2 -5 17 0 19 2 27 5 18 2 -10 2 -26 0 -35z m-10030 -45 c-3 -7 -5 -2 -5
12 0 14 2 19 5 13 2 -7 2 -19 0 -25z m10040 -40 c-3 -7 -5 -2 -5 12 0 14 2 19
5 13 2 -7 2 -19 0 -25z m10 -95 c-3 -10 -5 -4 -5 12 0 17 2 24 5 18 2 -7 2
-21 0 -30z m10 -75 c-3 -7 -5 -2 -5 12 0 14 2 19 5 13 2 -7 2 -19 0 -25z m10
-80 c-3 -7 -5 -2 -5 12 0 14 2 19 5 13 2 -7 2 -19 0 -25z m10 -80 c-3 -7 -5
-2 -5 12 0 14 2 19 5 13 2 -7 2 -19 0 -25z m10 -40 c-3 -8 -6 -5 -6 6 -1 11 2
17 5 13 3 -3 4 -12 1 -19z m10 -80 c-3 -8 -6 -5 -6 6 -1 11 2 17 5 13 3 -3 4
-12 1 -19z m-11374 -49 c95 -27 147 -47 147 -55 0 -8 -12 -43 -26 -78 l-26
-65 -66 26 c-37 14 -111 40 -164 57 -53 17 -100 34 -103 38 -4 4 3 36 15 72
21 63 22 64 48 56 15 -5 93 -28 175 -51z m11414 -311 c-3 -8 -6 -5 -6 6 -1 11
2 17 5 13 3 -3 4 -12 1 -19z m-11781 -55 c14 -27 67 -124 118 -218 420 -773
430 -796 406 -903 -19 -86 -87 -147 -273 -244 -81 -43 -149 -78 -151 -78 -11
0 -97 123 -90 129 5 4 34 18 64 31 80 33 222 107 246 128 61 52 61 116 2 237
-57 118 -140 274 -276 520 -61 110 -118 213 -126 228 l-16 29 -33 -20 c-17
-11 -97 -57 -177 -102 -149 -85 -182 -108 -176 -119 2 -3 7 -75 11 -159 l7
-152 -74 0 -75 0 2 58 c2 104 -15 279 -41 422 -9 47 -18 96 -20 110 -3 14 -9
39 -13 57 l-9 32 65 21 c36 12 71 19 78 16 7 -2 20 -52 30 -115 10 -62 21
-113 24 -116 4 -2 108 55 231 126 124 71 228 129 232 129 5 0 20 -21 34 -47z
m715 -292 l184 -321 57 120 c32 66 61 120 65 119 10 0 83 -113 83 -126 0 -5
-31 -72 -68 -149 -38 -76 -77 -160 -87 -186 -10 -27 -19 -48 -22 -48 -2 0 -32
13 -68 29 -63 29 -64 30 -59 63 4 20 -1 52 -13 84 -26 66 -305 553 -318 553
-5 0 -48 -22 -95 -48 -46 -27 -87 -48 -91 -45 -12 7 -60 97 -57 106 4 10 291
177 299 172 3 -2 89 -147 190 -323z m-1833 -28 c-1 -5 4 -61 11 -126 11 -88
18 -117 27 -113 7 3 72 39 145 81 72 41 133 74 134 73 11 -12 676 -1171 673
-1173 -8 -7 -115 -65 -121 -65 -3 0 -18 23 -33 50 -15 28 -32 50 -38 50 -6 0
-79 -40 -163 -89 l-152 -88 35 -57 c19 -31 34 -59 34 -61 0 -5 -122 -77 -125
-73 -11 14 -675 1172 -675 1178 0 3 31 24 70 46 39 22 70 46 70 55 0 13 -28
176 -44 256 -6 27 1 32 68 48 62 15 87 18 84 8z m2769 -195 c-2 -24 -4 -7 -4
37 0 44 2 63 4 43 2 -21 2 -57 0 -80z m-1855 -144 c121 -46 273 -111 287 -121
5 -3 -48 -124 -59 -136 -4 -5 -73 22 -151 61 -79 38 -175 82 -214 97 -38 16
-73 31 -78 35 -11 9 42 120 58 120 7 0 78 -25 157 -56z m1845 -46 c-2 -13 -4
-3 -4 22 0 25 2 35 4 23 2 -13 2 -33 0 -45z m-3104 -156 c22 -38 37 -79 41
-113 4 -29 13 -101 21 -158 8 -58 12 -108 8 -112 -5 -4 -36 -10 -70 -13 -48
-5 -63 -4 -64 6 0 7 -2 22 -4 33 -6 33 -14 97 -21 158 -4 32 -10 60 -15 62 -4
3 -140 -72 -303 -166 l-296 -171 -1 -141 c0 -134 -4 -185 -14 -195 -2 -2 -32
0 -66 5 l-63 8 -2 210 c-1 188 -11 306 -39 446 -6 32 2 36 85 45 58 6 60 5 61
-17 0 -13 2 -33 5 -44 2 -11 7 -51 10 -88 4 -37 10 -69 13 -71 3 -2 152 81
331 185 179 103 330 188 337 189 7 0 27 -26 46 -58z m3094 -24 c-2 -13 -4 -3
-4 22 0 25 2 35 4 23 2 -13 2 -33 0 -45z m-10 -125 c-3 -10 -5 -2 -5 17 0 19
2 27 5 18 2 -10 2 -26 0 -35z m10493 -23 c0 -5 -2 -10 -4 -10 -3 0 -8 5 -11
10 -3 6 -1 10 4 10 6 0 11 -4 11 -10z m-10503 -107 c-3 -10 -5 -4 -5 12 0 17
2 24 5 18 2 -7 2 -21 0 -30z m-4172 -100 c23 -132 23 -135 30 -211 4 -37 10
-83 14 -102 4 -20 144 -271 310 -559 166 -288 299 -527 294 -531 -17 -15 -112
-64 -116 -60 -4 4 -242 415 -423 730 l-49 85 -7 -130 c-7 -135 -15 -195 -25
-195 -3 0 -31 19 -62 42 l-57 42 1 255 c0 258 -15 442 -51 615 -15 74 -17 92
-9 84 3 -3 32 3 63 13 31 10 60 18 63 18 4 1 14 -43 24 -96z m4162 -15 c-3 -8
-6 -5 -6 6 -1 11 2 17 5 13 3 -3 4 -12 1 -19z m10733 -62 c0 -5 -13 3 -30 19
-16 16 -30 33 -30 39 0 5 14 -3 30 -19 17 -16 30 -33 30 -39z m-14096 1 c16
-28 114 -200 218 -380 104 -181 200 -352 214 -380 49 -107 22 -191 -84 -259
-87 -55 -191 -110 -202 -106 -6 2 -30 27 -53 57 l-44 54 108 53 c58 29 114 63
123 75 37 53 29 72 -209 484 -140 243 -221 393 -215 399 16 16 85 54 100 55 8
1 28 -23 44 -52z m8930 21 c51 -23 40 -83 -20 -112 -58 -27 -64 -23 -64 42 0
79 23 98 84 70z m-5577 -70 c-3 -7 -5 -2 -5 12 0 14 2 19 5 13 2 -7 2 -19 0
-25z m-2998 0 c20 -13 97 -65 171 -117 74 -52 160 -112 190 -133 30 -21 66
-47 79 -57 l24 -18 -43 -61 c-27 -39 -47 -59 -54 -54 -7 4 -66 48 -131 98 -66
50 -173 127 -237 173 -65 45 -118 86 -118 90 0 10 69 101 77 101 3 0 22 -10
42 -22z m2988 -90 c-3 -7 -5 -2 -5 12 0 14 2 19 5 13 2 -7 2 -19 0 -25z
m11718 22 c-3 -5 -12 -10 -18 -10 -7 0 -6 4 3 10 19 12 23 12 15 0z m-705 -40
c8 -5 11 -10 5 -10 -5 0 -17 5 -25 10 -8 5 -10 10 -5 10 6 0 17 -5 25 -10z
m-687 -47 c-5 -12 -7 -12 -14 -1 -5 7 -9 19 -9 27 0 11 3 11 14 1 8 -6 12 -18
9 -27z m1144 1 c-3 -3 -12 -4 -19 -1 -8 3 -5 6 6 6 11 1 17 -2 13 -5z m-244
-11 c-7 -2 -19 -2 -25 0 -7 3 -2 5 12 5 14 0 19 -2 13 -5z m170 0 c-7 -2 -19
-2 -25 0 -7 3 -2 5 12 5 14 0 19 -2 13 -5z m-1018 -13 c3 -5 2 -10 -4 -10 -5
0 -13 5 -16 10 -3 6 -2 10 4 10 5 0 13 -4 16 -10z m40 -38 c-3 -3 -11 0 -18 7
-9 10 -8 11 6 5 10 -3 15 -9 12 -12z m1305 14 c0 -2 -8 -10 -17 -17 -16 -13
-17 -12 -4 4 13 16 21 21 21 13z m-15186 -221 c8 -66 18 -142 21 -170 29 -266
34 -320 27 -326 -4 -4 -37 -11 -74 -14 l-68 -7 0 33 c-1 36 -4 83 -21 244 -12
124 -19 183 -25 215 -2 14 -7 48 -10 77 l-7 52 39 10 c55 14 88 18 96 12 3 -4
13 -60 22 -126z m14046 110 c14 -8 21 -14 15 -14 -5 0 -21 6 -35 14 -14 8 -20
14 -15 14 6 0 21 -6 35 -14z m920 -35 c-8 -5 -19 -10 -25 -10 -5 0 -3 5 5 10
8 5 20 10 25 10 6 0 3 -5 -5 -10z m-763 -26 c-3 -3 -12 -4 -19 -1 -8 3 -5 6 6
6 11 1 17 -2 13 -5z m80 -20 c-3 -3 -12 -4 -19 -1 -8 3 -5 6 6 6 11 1 17 -2
13 -5z m46 -11 c-7 -2 -19 -2 -25 0 -7 3 -2 5 12 5 14 0 19 -2 13 -5z m450 0
c-7 -2 -19 -2 -25 0 -7 3 -2 5 12 5 14 0 19 -2 13 -5z m-11356 -25 c-3 -8 -6
-5 -6 6 -1 11 2 17 5 13 3 -3 4 -12 1 -19z m10976 15 c-7 -2 -21 -2 -30 0 -10
3 -4 5 12 5 17 0 24 -2 18 -5z m320 0 c-7 -2 -21 -2 -30 0 -10 3 -4 5 12 5 17
0 24 -2 18 -5z m-115 -10 c-32 -2 -86 -2 -120 0 -35 2 -9 3 57 3 66 0 94 -1
63 -3z m-3763 -291 c3 -81 8 -288 11 -459 7 -312 7 -313 -14 -313 -32 0 -142
43 -184 71 -49 34 -268 245 -268 260 0 6 28 46 63 88 118 143 264 352 332 475
34 61 39 66 46 47 5 -12 11 -88 14 -169z m-7438 136 c-3 -8 -6 -5 -6 6 -1 11
2 17 5 13 3 -3 4 -12 1 -19z m-20 -150 c-3 -8 -6 -5 -6 6 -1 11 2 17 5 13 3
-3 4 -12 1 -19z m-20 -150 c-3 -7 -5 -2 -5 12 0 14 2 19 5 13 2 -7 2 -19 0
-25z m10630 -40 c-3 -8 -6 -5 -6 6 -1 11 2 17 5 13 3 -3 4 -12 1 -19z m-10729
-160 c70 -124 65 -99 46 -268 -3 -25 -12 -50 -19 -55 -7 -6 -15 -19 -18 -30
-4 -11 -5 -6 -2 10 3 23 -12 56 -61 143 -36 61 -68 112 -70 112 -3 0 -83 -45
-177 -99 -95 -55 -179 -102 -187 -106 -19 -7 -87 102 -73 116 10 10 484 287
493 288 3 1 34 -50 68 -111z m79 70 c-3 -8 -6 -5 -6 6 -1 11 2 17 5 13 3 -3 4
-12 1 -19z m-10 -65 c-3 -10 -5 -4 -5 12 0 17 2 24 5 18 2 -7 2 -21 0 -30z
m-10 -60 c-3 -10 -5 -4 -5 12 0 17 2 24 5 18 2 -7 2 -21 0 -30z m7137 -167
c55 -69 100 -149 112 -200 6 -26 5 -27 -15 -17 -38 21 -90 80 -117 134 -49 96
-85 223 -48 171 8 -12 38 -51 68 -88z m-7996 -20 c157 -55 212 -78 212 -89 0
-18 -53 -127 -62 -127 -5 0 -30 11 -56 24 -26 13 -92 43 -147 65 -54 23 -100
43 -102 45 -4 4 47 116 53 116 3 0 49 -15 102 -34z m-244 -138 c12 -54 35
-198 41 -253 3 -33 10 -77 14 -97 5 -20 144 -271 310 -559 166 -287 298 -525
294 -530 -4 -4 -32 -21 -61 -38 l-52 -31 -20 33 c-11 17 -116 197 -232 399
-117 202 -213 366 -214 365 -2 -2 -14 -230 -14 -264 0 -29 -13 -29 -48 1 -15
14 -40 36 -56 50 l-30 25 -2 228 c-1 125 -5 239 -7 253 -3 14 -8 52 -12 85 -8
68 -39 230 -55 288 -7 22 -9 41 -7 43 2 3 26 7 53 11 27 3 51 7 53 9 14 12 41
1 45 -18z m1043 -30 c-3 -8 -6 -5 -6 6 -1 11 2 17 5 13 3 -3 4 -12 1 -19z
m-10 -60 c-3 -8 -6 -5 -6 6 -1 11 2 17 5 13 3 -3 4 -12 1 -19z m-643 -95 c13
-21 118 -200 232 -398 114 -198 211 -361 215 -363 16 -6 9 -75 -15 -156 l-23
-79 -20 29 c-33 47 -525 905 -529 923 -3 11 12 26 48 48 29 17 56 32 60 32 4
1 19 -16 32 -36z m9857 -242 c64 -27 210 -80 325 -117 115 -36 317 -108 449
-159 132 -51 321 -123 420 -160 210 -78 293 -120 415 -211 l89 -66 -19 -42
c-10 -22 -32 -70 -48 -106 -92 -205 -429 -703 -700 -1035 -94 -115 -287 -327
-349 -384 -229 -212 -304 -282 -339 -318 -23 -24 -44 -43 -47 -43 -13 0 -107
462 -167 815 -99 591 -165 1079 -180 1343 -5 96 -12 178 -15 183 -7 11 -25
371 -19 381 3 4 19 -2 37 -12 18 -10 84 -41 148 -69z m-10758 -89 c26 -5 51
-12 54 -16 7 -6 -15 -117 -27 -135 -5 -9 -37 -5 -126 18 -65 16 -152 35 -191
42 -50 8 -73 17 -73 26 0 25 23 108 32 114 7 5 206 -25 331 -49z m-479 -123
c102 -170 176 -283 189 -292 8 -6 101 42 266 138 140 80 259 147 264 148 13 3
69 -93 64 -107 -3 -6 -94 -62 -203 -125 -110 -63 -225 -130 -256 -148 l-58
-34 52 -72 c67 -93 158 -204 196 -240 l30 -29 16 54 c31 108 69 313 75 406 1
10 21 13 77 11 l77 -2 -7 -59 c-10 -99 -53 -296 -89 -410 l-34 -107 43 -31
c80 -57 170 -93 249 -98 68 -4 74 -3 85 18 16 29 8 65 -41 191 -22 57 -42 113
-42 124 -2 19 19 26 118 38 17 2 25 -15 58 -113 83 -245 78 -309 -25 -378 -38
-25 -49 -27 -137 -26 -110 0 -156 15 -285 89 -44 25 -80 44 -81 42 -1 -1 -27
-51 -57 -112 -30 -60 -72 -137 -93 -170 -20 -33 -44 -73 -53 -88 -11 -17 -23
-26 -32 -23 -90 30 -120 42 -120 48 0 4 25 46 56 93 48 74 183 328 184 346 0
3 -27 35 -61 70 -75 79 -160 182 -224 272 -26 38 -53 71 -60 73 -13 5 -365
-194 -365 -206 0 -4 29 -58 64 -119 53 -94 66 -110 77 -99 8 7 41 36 74 63 33
28 73 62 90 77 65 58 78 68 87 68 9 0 82 -110 76 -114 -11 -10 -199 -174 -230
-201 l-37 -32 86 -149 c47 -82 98 -175 114 -206 30 -58 37 -116 20 -160 -16
-43 -80 -93 -186 -149 l-105 -54 -50 55 c-50 56 -58 70 -40 70 17 0 197 89
214 106 9 8 16 27 16 40 0 18 -149 294 -185 342 -1 1 -58 -47 -126 -107 l-124
-109 -53 51 c-29 29 -51 57 -50 63 2 6 55 53 118 105 63 51 125 102 136 114
l22 20 -71 123 c-40 67 -75 122 -80 122 -4 0 -75 -39 -158 -86 -82 -48 -151
-85 -153 -83 -1 2 -17 28 -34 56 l-32 53 38 23 c20 13 90 54 155 91 64 37 117
70 117 73 0 4 -108 192 -116 202 -5 6 -57 -29 -144 -96 -44 -35 -83 -63 -86
-63 -3 0 -29 23 -57 50 l-51 50 24 18 c13 9 43 31 66 47 98 70 393 303 446
353 l38 36 32 -30 c18 -17 44 -40 57 -52 l24 -22 -28 -22 c-16 -12 -40 -33
-54 -46 -14 -13 -52 -45 -83 -70 -32 -25 -58 -50 -58 -56 0 -6 29 -59 63 -118
l63 -108 174 101 c96 55 177 102 180 105 8 8 -73 141 -218 357 -25 37 -42 70
-39 74 20 20 123 71 130 64 4 -4 36 -55 71 -112z m1903 -31 c-3 -8 -6 -5 -6 6
-1 11 2 17 5 13 3 -3 4 -12 1 -19z m-30 -130 c-3 -8 -6 -5 -6 6 -1 11 2 17 5
13 3 -3 4 -12 1 -19z m-10 -40 c-3 -8 -6 -5 -6 6 -1 11 2 17 5 13 3 -3 4 -12
1 -19z m-10 -40 c-3 -8 -6 -5 -6 6 -1 11 2 17 5 13 3 -3 4 -12 1 -19z m-237
-758 c0 -5 -4 -10 -10 -10 -5 0 -10 5 -10 10 0 6 5 10 10 10 6 0 10 -4 10 -10z
m11905 -110 c3 -5 1 -10 -4 -10 -6 0 -11 5 -11 10 0 6 2 10 4 10 3 0 8 -4 11
-10z m2408 -54 c31 -9 57 -21 57 -27 0 -11 -27 -79 -32 -79 -23 0 -194 72
-196 82 -2 8 2 26 7 41 10 26 10 26 58 12 26 -7 74 -20 106 -29z m-2393 14 c0
-5 -2 -10 -4 -10 -3 0 -8 5 -11 10 -3 6 -1 10 4 10 6 0 11 -4 11 -10z m10 -24
c0 -3 -4 -8 -10 -11 -5 -3 -10 -1 -10 4 0 6 5 11 10 11 6 0 10 -2 10 -4z
m2206 -208 c20 -35 63 -112 94 -173 32 -60 78 -148 104 -194 25 -46 46 -88 46
-93 0 -5 7 -20 16 -34 21 -31 14 -101 -12 -137 -19 -26 -186 -127 -209 -127
-7 0 -25 14 -40 31 l-26 32 31 18 c17 11 35 19 41 19 16 0 102 52 116 70 31
39 7 102 -146 373 l-94 167 -31 -19 c-17 -10 -64 -37 -105 -61 l-73 -42 6 -77
c3 -42 2 -81 -2 -88 -4 -6 -24 -13 -43 -15 l-37 -3 134 -234 c74 -128 134
-237 134 -241 0 -11 -41 -40 -56 -40 -7 0 -20 13 -31 29 l-18 29 -87 -50 -87
-50 14 -28 c8 -16 15 -34 15 -39 0 -15 -61 -44 -70 -34 -4 4 -90 152 -190 327
l-182 319 23 18 c13 10 32 21 42 25 15 5 17 12 10 52 -10 60 -10 121 -1 122 4
1 21 5 38 10 33 9 33 9 45 -74 3 -22 7 -42 10 -44 2 -2 38 15 79 38 l76 41 25
-43 c14 -24 37 -61 51 -83 l25 -40 -6 110 c-3 61 -10 130 -15 155 -25 112 -25
109 4 120 59 22 72 6 80 -94 2 -22 27 -12 131 48 61 35 115 65 122 65 7 1 29
-27 49 -61z m-2178 -66 c-1 -10 0 -21 3 -27 4 -5 9 -23 13 -39 6 -25 5 -28 -7
-18 -18 15 -41 87 -33 101 10 16 28 3 24 -17z m2095 -279 c116 -49 118 -51 81
-110 l-14 -22 -120 57 c-66 31 -120 62 -120 69 0 7 5 24 12 38 13 30 11 30
161 -32z m-805 2 c7 -14 12 -28 12 -30 0 -2 -41 -27 -90 -55 -74 -42 -90 -55
-85 -71 3 -10 8 -28 11 -39 8 -28 17 -26 97 20 39 23 74 37 78 33 4 -4 50 -84
103 -177 l96 -170 -30 -19 c-17 -11 -32 -18 -34 -16 -2 2 -40 68 -86 147 l-82
142 -67 -37 c-36 -20 -83 -46 -103 -58 -21 -11 -38 -24 -38 -30 0 -5 36 -71
80 -145 l79 -135 -25 -23 c-14 -12 -29 -20 -34 -17 -9 6 -184 308 -195 337 -5
13 7 24 50 49 31 17 55 34 53 38 -2 3 -9 22 -17 42 l-14 36 -76 -43 c-42 -24
-79 -44 -83 -44 -4 0 -14 13 -23 29 l-15 30 203 115 c111 64 207 116 213 116
6 0 16 -11 22 -25z m-13717 -52 c-11 -21 -20 -32 -21 -25 0 17 30 75 36 69 3
-3 -4 -22 -15 -44z m12567 -58 c-3 -3 -9 2 -12 12 -6 14 -5 15 5 6 7 -7 10
-15 7 -18z m-12605 -20 c-3 -9 -8 -14 -10 -11 -3 3 -2 9 2 15 9 16 15 13 8 -4z
m12641 -75 c5 -20 3 -19 -8 5 -7 17 -16 41 -20 55 -5 20 -3 19 8 -5 7 -16 16
-41 20 -55z m734 -177 l91 -158 -27 -17 c-19 -12 -30 -14 -39 -6 -19 15 -182
-78 -176 -101 5 -18 -40 -46 -57 -36 -5 3 -47 73 -95 156 -57 99 -83 155 -77
161 16 16 266 157 279 158 6 0 52 -71 101 -157z m358 -6 c23 -40 48 -92 57
-117 17 -50 8 -47 185 -71 l94 -12 -7 -36 c-4 -20 -9 -38 -11 -40 -2 -2 -43 3
-91 12 -150 27 -143 27 -143 2 0 -39 -29 -119 -60 -169 -29 -45 -33 -48 -63
-42 -17 4 -35 10 -40 15 -5 5 10 36 35 72 42 62 43 66 43 144 0 78 -2 85 -53
184 -49 97 -51 104 -35 117 33 24 48 15 89 -59z m-13845 -4 c-12 -20 -14 -14
-5 12 4 9 9 14 11 11 3 -2 0 -13 -6 -23z m13187 -412 c150 -262 186 -333 190
-370 5 -58 -16 -87 -97 -135 -73 -43 -116 -53 -125 -31 -3 10 -11 13 -18 9 -7
-4 -10 -4 -6 1 4 4 3 14 -3 21 -8 10 -3 17 20 29 17 8 32 14 33 13 5 -5 83 46
95 62 7 8 13 23 13 33 0 12 -304 561 -325 585 -1 2 -23 -7 -49 -20 -29 -14
-49 -18 -55 -12 -14 14 -21 48 -13 60 11 18 125 84 141 81 8 -1 97 -148 199
-326z m-13248 242 c-11 -17 -11 -17 -6 0 3 10 6 24 7 30 0 9 2 9 5 0 3 -7 0
-20 -6 -30z m13718 -18 c7 -14 12 -28 12 -30 0 -2 -29 -20 -65 -40 -36 -20
-65 -40 -65 -43 0 -4 9 -22 20 -40 l20 -33 48 27 c26 15 53 32 61 38 10 8 18
4 32 -13 11 -13 18 -29 16 -35 -2 -6 -28 -25 -58 -43 -30 -18 -55 -36 -57 -41
-1 -4 11 -29 27 -54 33 -53 34 -53 136 -8 60 26 344 189 400 230 51 38 63 37
73 -2 9 -34 6 -58 -8 -58 -4 0 -43 -23 -86 -52 -129 -85 -391 -213 -465 -227
-61 -11 -150 -4 -181 15 -8 5 -9 -1 -4 -17 4 -13 9 -57 13 -98 6 -70 5 -73
-13 -63 -58 33 -72 55 -77 123 -4 44 -16 90 -36 134 -36 79 -37 83 -13 101 18
14 53 19 50 7 -3 -11 38 -87 54 -100 12 -10 89 -35 94 -30 5 5 -106 192 -116
195 -5 2 -46 -17 -90 -42 -43 -25 -83 -46 -88 -46 -15 0 -34 52 -23 63 15 15
355 207 367 207 6 0 16 -11 22 -25z m-13754 -109 c-3 -15 -8 -25 -11 -23 -2 3
-1 17 3 31 3 15 8 25 11 23 2 -3 1 -17 -3 -31z m-17 -58 c-3 -8 -6 -5 -6 6 -1
11 2 17 5 13 3 -3 4 -12 1 -19z m-10 -40 c-3 -8 -6 -5 -6 6 -1 11 2 17 5 13 3
-3 4 -12 1 -19z m13139 -158 c53 -94 95 -172 93 -173 -27 -21 -79 -43 -86 -38
-21 13 -35 52 -23 66 6 8 7 16 2 19 -19 11 -84 162 -92 214 -8 46 -5 82 5 82
2 0 47 -77 101 -170z m-13149 118 c-3 -8 -6 -5 -6 6 -1 11 2 17 5 13 3 -3 4
-12 1 -19z m5372 -165 c-65 -72 -146 -194 -222 -338 l-58 -110 6 55 c3 30 11
85 17 123 8 51 8 83 -1 135 -6 37 -12 72 -12 77 -1 9 279 112 310 114 7 1 -11
-25 -40 -56z m9959 21 c48 -34 14 -102 -48 -94 -41 5 -53 69 -17 93 28 20 38
20 65 1z m-15371 -106 c-3 -7 -5 -2 -5 12 0 14 2 19 5 13 2 -7 2 -19 0 -25z
m-17 -48 c-6 -12 -14 -20 -17 -17 -2 3 1 14 8 26 7 11 15 18 17 16 2 -2 -2
-13 -8 -25z m15350 -122 c26 -43 25 -45 -10 -53 -48 -11 -73 -51 -68 -111 3
-40 19 -76 76 -176 40 -69 72 -129 72 -134 0 -9 -55 -44 -70 -44 -7 0 -240
401 -240 413 0 6 72 49 75 45 1 -2 9 -14 18 -28 l17 -24 0 22 c0 36 26 77 62
101 43 27 45 27 68 -11z m-15510 -72 c0 -2 -8 -10 -17 -17 -16 -13 -17 -12 -4
4 13 16 21 21 21 13z m15051 -75 l33 -59 52 29 51 29 17 -24 c23 -37 21 -42
-33 -71 l-49 -27 76 -131 c41 -73 80 -135 86 -139 20 -14 53 -8 79 12 32 26
34 25 51 -9 14 -26 14 -30 -7 -48 -71 -63 -127 -70 -181 -22 -20 17 -68 88
-107 157 -40 70 -74 129 -75 131 -2 2 -15 -4 -28 -13 -35 -23 -51 -20 -65 11
-13 28 -8 36 38 62 11 7 8 18 -14 60 l-28 51 28 30 c16 17 32 30 36 30 4 0 22
-27 40 -59z m-1326 -203 c203 -104 400 -101 619 8 52 26 72 32 82 23 11 -9 11
-15 -2 -35 -26 -38 -191 -158 -294 -212 -222 -117 -396 -133 -576 -52 l-61 28
-6 108 c-4 60 -10 165 -13 234 l-7 124 94 -95 c70 -71 112 -105 164 -131z
m-13555 2 c0 -5 -2 -10 -4 -10 -3 0 -8 5 -11 10 -3 6 -1 10 4 10 6 0 11 -4 11
-10z m14706 -49 c42 -25 67 -60 157 -219 l76 -133 -32 -19 c-18 -11 -35 -20
-38 -20 -4 0 -41 60 -83 134 -42 74 -90 146 -107 160 -78 66 -192 -8 -175
-115 3 -21 40 -97 82 -169 42 -72 75 -133 73 -134 -10 -9 -71 -37 -74 -34 -2
2 -56 95 -120 207 -111 193 -116 205 -99 219 45 33 51 33 73 -1 19 -30 21 -30
21 -8 0 41 40 98 89 125 56 31 114 33 157 7z m-14816 -25 c0 -2 -8 -10 -17
-17 -16 -13 -17 -12 -4 4 13 16 21 21 21 13z m5406 -77 c164 -54 251 -123 391
-307 l55 -73 -39 -65 c-21 -36 -76 -129 -122 -207 -120 -204 -149 -247 -166
-247 -18 0 -211 95 -219 108 -3 5 -12 42 -20 83 -37 179 -48 293 -53 518 l-6
234 44 -7 c24 -4 85 -20 135 -37z m-5976 -14 c0 -2 -10 -9 -22 -15 -22 -11
-22 -10 -4 4 21 17 26 19 26 11z m13888 -14 c12 -10 22 -21 22 -25 0 -9 -49
27 -50 37 0 11 5 9 28 -12z m-13464 -16 c-4 -8 -11 -15 -16 -15 -6 0 -5 6 2
15 7 8 14 15 16 15 2 0 1 -7 -2 -15z m-544 -35 c-8 -5 -19 -10 -25 -10 -5 0
-3 5 5 10 8 5 20 10 25 10 6 0 3 -5 -5 -10z m492 -12 c-6 -6 -15 -8 -19 -4 -4
4 -1 11 7 16 19 12 27 3 12 -12z m14648 -220 c63 -110 116 -204 118 -209 2 -4
-15 -17 -37 -28 l-40 -21 -12 22 c-12 23 -12 23 -23 -7 -17 -46 -37 -69 -87
-98 -78 -46 -157 -29 -220 46 -23 28 -169 282 -169 294 0 11 67 49 74 43 2 -3
39 -66 81 -140 43 -74 89 -145 103 -157 69 -62 185 8 177 107 -2 22 -65 140
-146 276 l-19 32 32 21 c18 11 38 21 43 21 6 -1 62 -91 125 -202z m-15989 115
c13 -15 12 -15 -8 -4 -24 12 -29 21 -14 21 5 0 15 -7 22 -17z m1134 -43 c-3
-5 -12 -10 -18 -10 -7 0 -6 4 3 10 19 12 23 12 15 0z m385 -94 c0 -3 -4 -8
-10 -11 -5 -3 -10 -1 -10 4 0 6 5 11 10 11 6 0 10 -2 10 -4z m13317 -333 c-1
-60 -3 -11 -3 107 0 118 2 167 3 108 2 -60 2 -156 0 -215z m-14317 293 c0 -3
-4 -8 -10 -11 -5 -3 -10 -1 -10 4 0 6 5 11 10 11 6 0 10 -2 10 -4z m14511 -43
c0 -21 2 -47 5 -58 3 -17 24 -178 38 -295 3 -19 12 -89 21 -155 8 -66 17 -136
20 -155 2 -19 7 -57 10 -85 6 -49 5 -51 -26 -68 -41 -23 -45 -17 -54 82 -4 41
-9 85 -11 96 -2 11 -19 144 -39 295 -19 151 -37 292 -41 312 -5 33 -2 38 23
52 44 24 53 20 54 -21z m404 8 c20 -39 21 -38 -22 -46 -41 -7 -100 -39 -120
-65 -31 -38 11 -104 60 -94 78 16 165 16 198 0 81 -39 92 -153 20 -226 -28
-29 -124 -78 -160 -82 -29 -3 -36 1 -54 34 -12 20 -19 39 -17 42 3 3 27 6 54
7 50 3 131 45 142 74 11 28 -5 63 -33 72 -29 10 -36 10 -145 -2 -58 -7 -71 -5
-101 14 -41 25 -71 89 -62 132 16 70 122 161 194 167 25 2 33 -3 46 -27z
m-13945 -75 c0 -3 -4 -8 -10 -11 -5 -3 -10 -1 -10 4 0 6 5 11 10 11 6 0 10 -2
10 -4z m-23 -58 c-3 -8 -6 -5 -6 6 -1 11 2 17 5 13 3 -3 4 -12 1 -19z m823 6
c0 -14 -3 -14 -15 -4 -8 7 -15 14 -15 16 0 2 7 4 15 4 8 0 15 -7 15 -16z
m-843 -126 c-3 -8 -6 -5 -6 6 -1 11 2 17 5 13 3 -3 4 -12 1 -19z m810 -60 c-3
-7 -5 -2 -5 12 0 14 2 19 5 13 2 -7 2 -19 0 -25z m-7 -43 c0 -8 -2 -15 -4 -15
-2 0 -6 7 -10 15 -3 8 -1 15 4 15 6 0 10 -7 10 -15z m-817 -40 c-7 -21 -13
-19 -13 6 0 11 4 18 10 14 5 -3 7 -12 3 -20z m804 -27 c-3 -8 -6 -5 -6 6 -1
11 2 17 5 13 3 -3 4 -12 1 -19z m-10 -80 c-3 -7 -5 -2 -5 12 0 14 2 19 5 13 2
-7 2 -19 0 -25z m12620 -165 c-2 -38 -3 -7 -3 67 0 74 1 105 3 68 2 -38 2 -98
0 -135z m-12630 95 c-3 -7 -5 -2 -5 12 0 14 2 19 5 13 2 -7 2 -19 0 -25z
m-810 -20 c-3 -7 -5 -2 -5 12 0 14 2 19 5 13 2 -7 2 -19 0 -25z m5303 10 c0
-7 24 -55 54 -107 45 -80 56 -108 63 -168 5 -40 6 -73 3 -73 -21 0 -112 214
-125 295 -4 22 -9 48 -12 59 -3 12 -1 16 6 12 6 -4 11 -12 11 -18z m-4503 -60
c-3 -7 -5 -2 -5 12 0 14 2 19 5 13 2 -7 2 -19 0 -25z m-10 -80 c-3 -8 -6 -5
-6 6 -1 11 2 17 5 13 3 -3 4 -12 1 -19z m-150 -60 c-3 -8 -6 -5 -6 6 -1 11 2
17 5 13 3 -3 4 -12 1 -19z m12810 -181 c-2 -23 -3 -1 -3 48 0 50 1 68 3 42 2
-26 2 -67 0 -90z m-12680 46 c-3 -10 -5 -4 -5 12 0 17 2 24 5 18 2 -7 2 -21 0
-30z m-160 5 c-3 -8 -6 -5 -6 6 -1 11 2 17 5 13 3 -3 4 -12 1 -19z m-10 -60
c-3 -8 -6 -5 -6 6 -1 11 2 17 5 13 3 -3 4 -12 1 -19z m-10 -80 c-2 -13 -4 -5
-4 17 -1 22 1 32 4 23 2 -10 2 -28 0 -40z m0 -130 c-2 -18 -4 -4 -4 32 0 36 2
50 4 33 2 -18 2 -48 0 -65z m12870 5 c-2 -16 -4 -3 -4 27 0 30 2 43 4 28 2
-16 2 -40 0 -55z m-12710 0 c-2 -16 -4 -5 -4 22 0 28 2 40 4 28 2 -13 2 -35 0
-50z m-150 -115 c-2 -13 -4 -3 -4 22 0 25 2 35 4 23 2 -13 2 -33 0 -45z
m12870 -15 c-3 -10 -5 -2 -5 17 0 19 2 27 5 18 2 -10 2 -26 0 -35z m-12730
-50 c-2 -16 -4 -5 -4 22 0 28 2 40 4 28 2 -13 2 -35 0 -50z m-130 -20 c-3 -10
-5 -2 -5 17 0 19 2 27 5 18 2 -10 2 -26 0 -35z m12870 -70 c-3 -10 -5 -2 -5
17 0 19 2 27 5 18 2 -10 2 -26 0 -35z m-12860 5 c-3 -7 -5 -2 -5 12 0 14 2 19
5 13 2 -7 2 -19 0 -25z m12870 -110 c-3 -7 -5 -2 -5 12 0 14 2 19 5 13 2 -7 2
-19 0 -25z m10 -105 c-3 -10 -5 -4 -5 12 0 17 2 24 5 18 2 -7 2 -21 0 -30z
m20 -175 c-3 -7 -5 -2 -5 12 0 14 2 19 5 13 2 -7 2 -19 0 -25z m-8817 -230
c-1 -133 -79 -317 -205 -486 -78 -104 -274 -317 -283 -308 -2 3 16 40 41 83
52 91 87 180 122 317 23 91 46 290 42 361 l-2 30 75 8 c41 4 98 13 125 21 83
22 85 22 85 -26z m8857 -50 c-3 -7 -5 -2 -5 12 0 14 2 19 5 13 2 -7 2 -19 0
-25z m10 -60 c-3 -8 -6 -5 -6 6 -1 11 2 17 5 13 3 -3 4 -12 1 -19z m-13218
-94 c17 -36 31 -69 31 -73 -1 -8 -39 63 -57 107 -24 58 -6 34 26 -34z m13228
34 c-3 -8 -6 -5 -6 6 -1 11 2 17 5 13 3 -3 4 -12 1 -19z m10 -60 c-3 -8 -6 -5
-6 6 -1 11 2 17 5 13 3 -3 4 -12 1 -19z m10 -60 c-3 -8 -6 -5 -6 6 -1 11 2 17
5 13 3 -3 4 -12 1 -19z m-13199 -23 c-3 -3 -9 2 -12 12 -6 14 -5 15 5 6 7 -7
10 -15 7 -18z m13209 -37 c-3 -8 -6 -5 -6 6 -1 11 2 17 5 13 3 -3 4 -12 1 -19z
m818 -80 c3 -18 9 -52 13 -75 l7 -42 130 75 c72 40 136 74 142 74 7 0 19 -13
28 -29 16 -31 16 -31 -53 -76 -1 -1 11 -32 27 -69 59 -131 90 -241 91 -323 l0
-52 52 -16 c29 -8 89 -15 136 -15 l85 0 -7 -42 c-4 -22 -9 -45 -13 -51 -6 -10
-151 -1 -187 12 -68 25 -74 24 -86 -21 -14 -53 -85 -204 -100 -213 -13 -8 -80
13 -80 26 0 5 10 26 23 47 34 53 75 147 82 185 5 30 2 34 -49 65 -56 34 -170
143 -192 184 l-13 23 -1 -22 c0 -25 -14 -28 -53 -14 -22 9 -24 15 -30 113 -4
56 -14 141 -22 188 -8 47 -15 86 -15 87 0 3 35 11 57 12 17 1 23 -6 28 -31z
m-798 -50 c-3 -7 -5 -2 -5 12 0 14 2 19 5 13 2 -7 2 -19 0 -25z m10 -60 c-3
-7 -5 -2 -5 12 0 14 2 19 5 13 2 -7 2 -19 0 -25z m-2786 -5 c-8 -15 -10 -15
-11 -2 0 17 10 32 18 25 2 -3 -1 -13 -7 -23z m3429 -14 c11 -26 11 -33 -1 -40
-8 -4 -48 -28 -88 -51 -41 -24 -74 -46 -73 -50 1 -5 2 -57 2 -118 l0 -110 48
30 c26 16 60 40 76 53 l29 23 -47 28 c-26 15 -46 31 -44 34 2 4 10 19 17 34
14 27 14 27 45 11 46 -23 206 -134 206 -141 0 -4 -11 -20 -24 -36 l-23 -30
-31 23 c-29 21 -33 21 -59 6 -44 -25 -137 -93 -189 -138 -32 -27 -32 -27 -63
-10 -29 17 -31 21 -24 53 7 33 7 61 4 193 l-1 58 -63 -36 c-35 -19 -67 -35
-70 -35 -4 0 -13 13 -22 30 -14 27 -14 30 2 41 83 50 360 207 369 208 6 1 17
-13 24 -30z m-633 -56 c-3 -10 -5 -4 -5 12 0 17 2 24 5 18 2 -7 2 -21 0 -30z
m-13180 -70 c-3 -10 -5 -2 -5 17 0 19 2 27 5 18 2 -10 2 -26 0 -35z m13190 0
c-3 -10 -5 -4 -5 12 0 17 2 24 5 18 2 -7 2 -21 0 -30z m10 -70 c-3 -10 -5 -4
-5 12 0 17 2 24 5 18 2 -7 2 -21 0 -30z m-2877 1 c0 -8 -5 -12 -10 -9 -6 4 -8
11 -5 16 9 14 15 11 15 -7z m-10333 -41 c-3 -10 -5 -4 -5 12 0 17 2 24 5 18 2
-7 2 -21 0 -30z m10250 -10 c-3 -10 -5 -2 -5 17 0 19 2 27 5 18 2 -10 2 -26 0
-35z m6 -53 c3 -11 1 -20 -4 -20 -5 0 -9 4 -9 9 0 5 -3 17 -7 27 -4 11 -3 15
4 11 6 -4 13 -16 16 -27z m-26 -42 c-3 -8 -6 -5 -6 6 -1 11 2 17 5 13 3 -3 4
-12 1 -19z m3 -58 c0 -16 -4 -30 -10 -30 -5 0 -10 14 -10 30 0 17 5 30 10 30
6 0 10 -13 10 -30z m-10223 -412 c-3 -7 -5 -2 -5 12 0 14 2 19 5 13 2 -7 2
-19 0 -25z"/>
<path d="M16257 18401 c-65 -38 -121 -71 -124 -74 -3 -4 13 -40 37 -80 l42
-74 124 71 c68 39 124 75 124 79 0 7 -80 147 -84 147 0 0 -54 -31 -119 -69z"/>
<path d="M16775 18363 c-60 -35 -115 -67 -122 -71 -8 -5 1 -29 29 -77 75 -130
51 -123 180 -48 62 35 117 68 122 73 4 5 -10 41 -32 82 -66 118 -51 115 -177
41z"/>
<path d="M16400 18147 c-58 -34 -110 -66 -117 -70 -9 -6 2 -32 39 -95 28 -48
52 -89 54 -91 2 -2 59 29 128 69 142 82 135 61 63 183 -21 37 -44 67 -51 67
-6 -1 -58 -29 -116 -63z"/>
<path d="M16028 17932 c-65 -37 -118 -70 -118 -74 0 -14 102 -179 109 -176 23
10 232 131 235 136 5 8 -95 182 -104 182 -3 0 -58 -31 -122 -68z"/>
<path d="M16723 17621 c-123 -70 -227 -131 -233 -137 -6 -6 -13 -41 -17 -79
l-6 -68 24 7 c13 3 56 14 94 23 39 9 115 28 170 42 l100 26 32 75 c27 65 69
227 61 236 -2 1 -103 -55 -225 -125z"/>
<path d="M17805 15876 c-182 -105 -367 -212 -412 -238 l-82 -48 32 -55 c17
-30 34 -55 38 -55 9 0 799 456 811 468 5 5 -4 31 -22 63 -18 30 -33 54 -34 55
0 0 -150 -85 -331 -190z"/>
<path d="M17850 15613 c-223 -129 -404 -239 -402 -245 2 -6 15 -31 29 -55 l25
-44 57 33 c31 17 92 50 136 72 44 23 205 113 357 201 l277 160 -26 45 c-14 25
-31 50 -37 56 -8 9 -114 -48 -416 -223z"/>
<path d="M18161 15504 c-118 -68 -218 -124 -223 -124 -5 0 -92 -48 -193 -106
l-184 -106 29 -52 c16 -28 34 -52 40 -54 6 -2 131 66 278 151 148 85 284 162
304 170 28 12 219 119 237 133 5 4 -60 114 -67 113 -4 0 -103 -56 -221 -125z"/>
<path d="M3400 15699 c0 -5 5 -7 10 -4 6 3 10 8 10 11 0 2 -4 4 -10 4 -5 0
-10 -5 -10 -11z"/>
<path d="M16880 14325 c-157 -91 -285 -170 -285 -177 0 -23 120 -228 132 -226
21 5 583 333 583 341 0 16 -125 227 -135 227 -5 0 -138 -75 -295 -165z"/>
<path d="M4788 10987 c-126 -72 -228 -135 -228 -139 0 -10 83 -64 149 -97 69
-35 187 -78 226 -82 29 -4 30 -2 54 76 17 59 24 115 28 210 3 72 4 137 2 147
-3 13 -52 -12 -231 -115z"/>
<path d="M5121 10702 c-13 -53 -10 -75 10 -55 6 6 9 32 7 59 l-3 49 -14 -53z"/>
<path d="M5472 9140 c0 -14 2 -19 5 -12 2 6 2 18 0 25 -3 6 -5 1 -5 -13z"/>
<path d="M4875 6503 c-31 -83 -96 -206 -138 -262 -22 -30 -35 -51 -28 -47 17
11 14 -17 -5 -40 -8 -10 -13 -13 -9 -6 9 17 -10 15 -25 -3 -7 -9 -15 -13 -18
-10 -7 7 -92 -75 -92 -89 0 -5 10 -1 22 10 13 10 5 -1 -17 -26 -22 -25 -43
-42 -46 -38 -6 9 -40 -26 -145 -147 -187 -215 -328 -441 -388 -623 -38 -114
-31 -121 13 -12 43 109 70 164 78 157 2 -3 -1 -15 -7 -27 -6 -11 -10 -26 -7
-33 2 -6 -3 -19 -11 -28 -17 -20 -42 -86 -42 -111 0 -10 -4 -18 -9 -18 -11 0
-26 -57 -22 -84 1 -10 -1 -16 -7 -13 -5 4 -9 1 -9 -6 0 -7 -4 -20 -8 -30 -6
-13 -3 -16 9 -11 9 3 16 13 16 22 0 8 3 12 7 9 3 -4 15 1 27 10 20 18 -55 -84
-91 -122 -10 -11 -25 -30 -33 -42 -8 -12 -40 -54 -71 -95 -64 -83 -94 -128
-86 -128 3 0 47 55 98 123 121 160 136 176 178 183 28 6 54 27 122 98 254 268
506 609 624 844 58 117 90 229 125 436 16 93 18 131 10 136 -8 5 -8 14 0 35 6
15 9 29 7 32 -2 2 -12 -18 -22 -44z m-225 -377 c0 -2 -8 -10 -17 -17 -16 -13
-17 -12 -4 4 13 16 21 21 21 13z m32 -18 c-7 -7 -12 -8 -12 -2 0 14 12 26 19
19 2 -3 -1 -11 -7 -17z m-29 -53 c-3 -9 -8 -14 -10 -11 -3 3 -2 9 2 15 9 16
15 13 8 -4z m-193 -148 c0 -2 -10 -12 -22 -23 l-23 -19 19 23 c18 21 26 27 26
19z m-60 -81 c0 -2 -7 -7 -16 -10 -8 -3 -12 -2 -9 4 6 10 25 14 25 6z m-194
-538 c-9 -12 -16 -19 -16 -15 0 11 24 47 28 42 2 -2 -3 -14 -12 -27z m-146
-192 c0 -2 -8 -10 -17 -17 -16 -13 -17 -12 -4 4 13 16 21 21 21 13z"/>
<path d="M4530 6025 c-20 -24 -6 -28 15 -5 10 11 13 20 8 20 -6 0 -16 -7 -23
-15z"/>
<path d="M3940 5065 c-7 -25 -10 -48 -8 -51 3 -2 11 16 17 42 15 61 8 68 -9 9z"/>
<path d="M2470 10180 c-92 -53 -154 -94 -152 -102 7 -28 185 -328 195 -328 14
0 307 170 307 178 0 6 -191 342 -194 342 -1 0 -71 -40 -156 -90z"/>
<path d="M2729 9718 l-156 -90 99 -172 c55 -94 103 -175 108 -180 5 -5 73 28
162 79 84 49 154 89 156 91 5 3 -202 363 -208 363 -3 0 -75 -41 -161 -91z"/>
<path d="M18000 5679 c-47 -27 -84 -53 -83 -58 2 -8 61 -112 89 -158 l14 -22
80 46 c44 25 83 49 85 54 4 6 -93 191 -99 188 0 0 -39 -22 -86 -50z"/>
<path d="M18150 5420 c-47 -26 -84 -53 -82 -59 1 -6 25 -51 53 -100 l50 -89
87 50 c48 27 88 51 89 52 2 1 -104 186 -111 193 -1 1 -40 -20 -86 -47z"/>
<path d="M17098 5313 l-76 -44 16 -29 c9 -17 21 -30 25 -30 4 0 44 21 88 46
l79 46 -17 29 c-10 16 -22 29 -28 28 -5 -1 -45 -21 -87 -46z"/>
<path d="M17168 5192 l-77 -46 17 -28 c9 -15 20 -28 25 -28 4 0 43 20 87 45
l79 46 -17 29 c-9 17 -21 30 -27 29 -5 0 -45 -21 -87 -47z"/>
<path d="M17943 867 l-72 -43 19 -31 c55 -92 208 -243 245 -243 10 0 4 54 -14
118 -26 96 -88 243 -101 242 -3 -1 -37 -20 -77 -43z"/>
<path d="M17976 19085 c-10 -8 -23 -16 -29 -18 -10 -3 39 -97 50 -97 6 0 177
96 208 117 17 11 3 13 -95 13 -84 -1 -120 -5 -134 -15z"/>
<path d="M18250 18990 c-102 -60 -189 -111 -194 -112 -8 -4 51 -118 61 -118 3
0 92 50 199 112 l193 112 -26 45 c-15 25 -31 51 -37 58 -8 8 -58 -16 -196 -97z"/>
<path d="M18601 19078 c7 -13 36 -64 65 -115 30 -50 54 -96 54 -101 0 -6 20
-45 46 -87 25 -43 44 -78 42 -80 -2 -1 -25 -15 -51 -30 -40 -23 -51 -26 -58
-14 -5 8 -9 17 -9 22 0 15 -22 4 -209 -104 l-191 -111 32 -58 c18 -33 34 -57
37 -56 29 16 376 220 446 262 50 29 93 54 97 54 11 0 50 -79 43 -90 -3 -5 -47
-32 -98 -61 -50 -29 -105 -62 -122 -74 -16 -11 -52 -34 -80 -50 -27 -15 -92
-52 -143 -82 l-93 -55 27 -46 c15 -26 28 -48 29 -50 1 -2 63 33 136 77 299
178 479 281 489 281 7 0 10 99 10 295 l0 295 -255 0 -256 0 12 -22z"/>
<path d="M18360 18780 c-102 -60 -185 -112 -185 -117 0 -4 13 -31 29 -60 26
-47 31 -51 50 -41 96 51 366 212 366 219 0 17 -55 109 -65 108 -5 0 -93 -50
-195 -109z"/>
<path d="M17740 18695 c-96 -57 -179 -105 -184 -107 -9 -4 50 -118 60 -118 5
0 312 176 361 206 l22 14 -32 55 c-17 30 -36 55 -42 54 -5 0 -89 -47 -185
-104z"/>
<path d="M14605 18728 c-373 -192 -708 -429 -939 -663 -335 -340 -673 -891
-845 -1378 -17 -49 -31 -93 -31 -99 0 -6 31 19 69 54 62 59 151 128 165 128 3
0 27 14 53 30 26 17 51 30 55 30 5 0 -6 -24 -23 -52 -54 -93 -136 -270 -162
-353 -21 -68 -97 -340 -97 -348 0 -2 42 8 93 21 79 20 108 23 207 19 188 -8
355 -59 615 -188 169 -83 245 -134 336 -224 l56 -56 44 43 c150 148 273 556
384 1278 65 419 81 596 91 976 9 315 -4 804 -20 804 -6 -1 -29 -10 -51 -22z
m25 -38 c0 -5 -2 -10 -4 -10 -3 0 -8 5 -11 10 -3 6 -1 10 4 10 6 0 11 -4 11
-10z m29 -491 c2 -592 -70 -1214 -210 -1829 -58 -253 -166 -560 -201 -573 -19
-6 -58 14 -58 30 0 7 -7 13 -15 13 -8 0 -12 6 -9 13 3 9 -8 12 -37 12 -27 0
-45 6 -54 18 -7 9 -17 17 -23 17 -6 0 -15 7 -20 16 -5 9 -21 18 -36 19 -33 4
-33 4 -38 30 -3 20 -33 48 -53 51 -5 0 -12 2 -15 3 -3 1 -15 4 -28 7 -13 2
-38 18 -55 34 -18 17 -40 33 -49 36 -9 3 -20 14 -23 25 -6 17 -9 18 -23 7 -13
-11 -14 -11 -8 0 10 17 -23 43 -46 36 -10 -3 -18 0 -18 6 0 24 -40 49 -134 80
-54 19 -100 40 -103 47 -3 6 0 45 6 85 6 40 11 90 11 111 -1 22 4 37 11 37 9
0 10 24 6 90 -8 125 -17 137 -51 67 -46 -93 -52 -84 -60 86 -4 84 -9 166 -12
182 -2 17 -7 50 -10 74 -5 37 -2 54 22 100 16 31 32 58 37 59 4 2 7 15 7 28 0
14 5 23 13 22 8 -2 11 8 9 32 -2 23 0 30 6 22 7 -10 11 -10 22 3 7 8 10 18 7
21 -3 4 3 16 14 28 11 11 18 29 15 38 -2 11 1 18 9 18 15 0 48 58 40 70 -2 4
7 18 20 30 14 13 25 32 25 42 0 10 5 17 12 15 7 -1 12 6 13 16 0 10 5 21 12
25 18 11 63 81 63 97 0 8 5 15 10 15 6 0 10 7 10 15 0 8 5 15 11 15 13 0 39
25 39 38 0 5 7 15 15 22 8 7 15 26 15 42 0 17 4 27 10 23 6 -4 8 -12 4 -18 -5
-11 13 8 52 56 12 15 13 22 3 33 -10 12 -9 13 6 8 24 -10 127 100 111 117 -8
9 -8 10 1 5 15 -8 85 42 77 55 -3 5 -1 9 3 9 5 0 24 12 41 26 27 23 30 29 20
42 -11 13 -10 14 10 3 14 -8 22 -8 22 -1 0 6 16 18 35 27 29 14 32 19 22 31
-10 13 -8 14 11 8 19 -6 22 -4 22 19 0 15 4 24 10 20 6 -4 8 -11 5 -16 -4 -5
-2 -9 4 -9 5 0 13 5 16 10 4 6 25 20 48 32 23 12 36 23 29 25 -18 7 -4 23 19
23 10 0 27 8 37 18 9 9 31 23 47 31 26 12 28 14 12 20 -18 7 -18 8 -1 21 9 8
30 16 46 17 60 5 68 8 68 20 0 7 7 13 15 13 9 0 18 7 21 15 5 11 11 12 24 5
28 -15 30 -13 31 28 4 114 28 -194 28 -359z m-349 236 c0 -12 -29 -3 -34 10
-4 13 -2 14 14 5 11 -6 20 -13 20 -15z m-180 -45 c0 -5 -5 -10 -11 -10 -5 0
-7 5 -4 10 3 6 8 10 11 10 2 0 4 -4 4 -10z m40 -16 c0 -8 -19 -13 -24 -6 -3 5
1 9 9 9 8 0 15 -2 15 -3z m-293 -180 c-3 -3 -12 -4 -19 -1 -8 3 -5 6 6 6 11 1
17 -2 13 -5z m-62 -44 c-10 -11 -21 -17 -24 -14 -3 3 3 12 13 20 28 20 32 17
11 -6z m-165 -160 c0 -5 -5 -10 -11 -10 -5 0 -7 5 -4 10 3 6 8 10 11 10 2 0 4
-4 4 -10z m-80 -100 c0 -5 -4 -10 -10 -10 -5 0 -10 5 -10 10 0 6 5 10 10 10 6
0 10 -4 10 -10z m-40 -44 c0 -3 -4 -8 -10 -11 -5 -3 -10 -1 -10 4 0 6 5 11 10
11 6 0 10 -2 10 -4z m-60 -76 c0 -5 -5 -10 -11 -10 -5 0 -7 5 -4 10 3 6 8 10
11 10 2 0 4 -4 4 -10z m265 -1770 c8 -13 -5 -13 -25 0 -13 8 -13 10 2 10 9 0
20 -4 23 -10z m85 -34 c0 -2 -7 -6 -15 -10 -8 -3 -15 -1 -15 4 0 6 7 10 15 10
8 0 15 -2 15 -4z m37 -32 c-3 -3 -12 -4 -19 -1 -8 3 -5 6 6 6 11 1 17 -2 13
-5z"/>
<path d="M14080 15910 c0 -5 7 -10 15 -10 8 0 15 5 15 10 0 6 -7 10 -15 10 -8
0 -15 -4 -15 -10z"/>
<path d="M17863 18491 c-100 -58 -185 -109 -188 -112 -4 -4 8 -32 25 -63 l32
-57 32 19 c17 10 104 60 193 111 l162 93 -26 47 c-14 25 -31 51 -37 57 -8 8
-59 -17 -193 -95z"/>
<path d="M7102 16603 c-119 -184 -252 -437 -366 -695 -240 -546 -379 -1125
-426 -1773 -27 -377 0 -1040 65 -1580 66 -560 84 -634 305 -1270 33 -96 208
-454 286 -584 57 -96 145 -197 189 -215 37 -16 78 -67 70 -88 -3 -8 3 -22 14
-32 23 -21 25 -28 -25 119 -45 133 -158 385 -187 418 -19 21 -67 116 -67 132
0 8 -4 15 -8 15 -9 0 -37 61 -46 102 -4 16 -12 27 -19 25 -6 -1 -11 4 -9 12 2
7 -6 23 -16 35 -11 11 -23 30 -26 42 -8 28 -105 157 -163 217 -56 59 -61 83
-51 245 9 147 37 310 80 468 30 111 33 116 68 134 l37 19 38 -75 c82 -160 215
-275 318 -273 41 0 40 1 -23 17 -36 10 -83 30 -105 45 -90 61 -189 220 -251
404 -28 83 -46 109 -23 35 10 -36 8 -48 -25 -141 -20 -56 -47 -148 -61 -204
-27 -107 -43 -147 -57 -147 -4 0 -8 12 -8 27 0 26 -1 26 -15 7 -13 -18 -14
-17 -15 18 0 20 -4 40 -10 43 -5 3 -10 17 -10 30 0 13 -6 26 -12 29 -10 5 -10
7 0 12 10 5 9 9 -4 19 -10 7 -17 25 -17 43 0 17 -4 29 -8 27 -4 -3 -10 2 -13
11 -10 25 -7 36 7 28 6 -4 4 1 -5 12 -9 10 -20 32 -24 49 -4 16 -13 36 -21 43
-9 9 -12 26 -8 50 17 104 17 99 2 80 -8 -10 -19 -18 -25 -18 -13 0 -28 48 -18
57 3 4 6 -3 6 -15 0 -11 5 -24 10 -27 11 -7 12 18 1 55 -4 14 -3 33 3 43 8 13
8 20 -2 26 -8 4 -16 27 -19 49 -3 23 -9 39 -13 37 -4 -3 -11 17 -15 43 -3 26
-13 72 -20 102 -36 140 -63 814 -46 1125 32 571 115 1018 281 1500 119 343
343 807 526 1088 35 54 64 100 64 102 0 22 -29 -11 -88 -102z m-640 -4358 c-2
-14 -6 -25 -8 -25 -2 0 -4 11 -4 25 0 14 4 25 9 25 4 0 6 -11 3 -25z m28 -155
c0 -5 -2 -10 -4 -10 -3 0 -8 5 -11 10 -3 6 -1 10 4 10 6 0 11 -4 11 -10z m30
-6 c0 -8 -4 -12 -10 -9 -5 3 -10 10 -10 16 0 5 5 9 10 9 6 0 10 -7 10 -16z
m-3 -131 c-3 -10 -5 -4 -5 12 0 17 2 24 5 18 2 -7 2 -21 0 -30z m53 2 c0 -9
-6 -12 -15 -9 -8 4 -12 10 -9 15 8 14 24 10 24 -6z m9 -235 c4 0 8 -6 9 -12
12 -97 13 -130 5 -125 -15 9 -33 88 -32 134 1 21 3 30 6 21 2 -10 8 -18 12
-18z m244 -692 c6 -22 5 -22 -8 -4 -17 22 -20 40 -6 32 5 -3 11 -16 14 -28z"/>
<path d="M7829 16258 c-28 -52 -81 -229 -108 -361 -58 -280 -77 -461 -99 -923
-5 -113 -4 -197 5 -280 8 -65 18 -213 22 -329 5 -115 14 -250 20 -300 14 -113
59 -383 71 -425 5 -17 6 -38 3 -46 -3 -8 -1 -14 5 -14 5 0 13 -28 17 -62 5
-35 9 -66 9 -70 1 -3 4 -10 9 -14 4 -4 7 -18 7 -31 0 -13 7 -37 15 -52 8 -16
12 -31 9 -33 -2 -3 3 -22 11 -43 9 -20 14 -44 11 -52 -3 -8 -2 -12 3 -9 8 5
41 -68 41 -92 0 -7 4 -20 9 -30 5 -9 17 -39 26 -67 9 -27 20 -59 25 -70 61
-149 75 -174 280 -508 24 -38 62 -94 86 -126 24 -33 44 -63 44 -69 0 -13 -59
-20 -230 -27 -173 -8 -318 8 -435 49 -11 4 -3 -2 18 -14 85 -47 292 -68 508
-51 74 5 143 13 152 17 21 8 22 27 3 43 -45 38 -258 393 -244 407 4 4 58 8
120 11 l113 4 47 -64 c63 -84 158 -188 211 -229 29 -22 16 -5 -41 56 -202 215
-329 408 -494 746 -39 80 -82 174 -95 210 -33 85 -124 344 -122 348 0 1 -10
35 -22 75 -13 39 -23 89 -22 109 0 21 -3 36 -7 33 -4 -3 -13 17 -20 43 -6 26
-19 66 -27 90 -8 24 -12 46 -9 49 3 4 6 -2 6 -12 0 -10 3 -15 7 -12 3 4 1 17
-5 30 -6 12 -13 43 -17 70 -4 32 -10 45 -18 41 -7 -4 -9 -4 -6 0 4 4 2 26 -3
49 -19 85 -45 304 -45 387 0 77 0 80 7 30 4 -30 8 -46 9 -35 3 40 -21 352 -31
402 -29 138 70 816 156 1074 33 99 37 118 15 77z m-97 -2168 c104 -429 300
-899 517 -1242 33 -54 61 -102 61 -108 0 -6 -43 -10 -116 -10 l-115 0 -36 78
c-157 342 -271 759 -337 1232 -13 96 -26 204 -30 240 l-5 65 15 -65 c8 -36 29
-121 46 -190z"/>
<path d="M10450 14441 c0 -17 11 -88 24 -158 60 -312 73 -530 45 -753 -36
-294 -170 -703 -332 -1015 -9 -18 -9 -19 6 -6 24 19 128 237 172 356 19 55 40
110 45 122 15 37 325 263 359 263 16 0 24 -83 17 -172 -15 -198 -16 -245 -5
-208 5 19 12 109 16 200 8 225 -14 433 -68 658 -28 118 -126 395 -193 544 -31
71 -59 142 -63 158 -8 41 -23 48 -23 11z m154 -371 c82 -207 142 -452 164
-667 l8 -81 -90 -59 c-50 -32 -123 -81 -163 -110 -40 -29 -73 -50 -73 -47 0 3
13 55 30 117 85 324 98 687 34 972 -13 60 -24 114 -23 120 1 16 63 -118 113
-245z m146 -798 c0 -9 -72 -52 -86 -52 -4 0 12 13 36 29 53 34 50 33 50 23z"/>
<path d="M7710 14415 c0 -5 5 -17 10 -25 5 -8 10 -10 10 -5 0 6 -5 17 -10 25
-5 8 -10 11 -10 5z"/>
<path d="M7742 14320 c0 -14 2 -19 5 -12 2 6 2 18 0 25 -3 6 -5 1 -5 -13z"/>
<path d="M11248 14005 c23 -33 55 -76 72 -95 17 -19 3 3 -30 50 -73 100 -101
131 -42 45z"/>
<path d="M6965 13795 c3 -121 10 -214 19 -255 9 -36 15 -76 15 -90 0 -24 0
-24 -14 -6 -18 23 -20 13 -4 -16 9 -17 8 -24 -2 -32 -10 -8 -15 -37 -16 -93
-1 -45 -9 -135 -18 -200 -34 -256 -31 -471 11 -643 21 -85 91 -234 143 -303
61 -80 79 -79 21 1 -53 74 -117 195 -126 240 l-6 29 144 51 c185 66 261 88
266 74 1 -5 41 -62 87 -125 56 -75 94 -118 112 -125 16 -5 37 -13 48 -17 11
-4 0 6 -25 22 -52 34 -92 81 -177 208 -132 195 -209 341 -286 536 -51 129 -76
214 -106 369 -63 329 -74 393 -82 475 -5 66 -6 38 -4 -100z m96 -527 c55 -188
154 -418 246 -571 21 -35 32 -62 26 -68 -5 -5 -56 -23 -113 -40 -58 -17 -134
-42 -170 -55 -36 -13 -70 -24 -77 -24 -22 0 -36 167 -30 355 4 133 12 217 31
320 25 134 44 201 53 191 2 -2 18 -51 34 -108z m304 -677 c3 -5 1 -13 -5 -16
-16 -10 -184 -54 -189 -50 -14 15 18 35 81 53 84 23 104 26 113 13z"/>
<path d="M9563 13784 c-11 -28 -8 -235 4 -354 24 -237 90 -539 146 -678 37
-89 136 -241 196 -302 31 -30 55 -58 53 -62 -1 -4 14 -10 33 -14 19 -3 35 -10
35 -14 0 -19 -73 -51 -171 -75 -261 -65 -495 -33 -761 104 -123 63 -218 126
-297 197 -28 25 -51 42 -51 38 0 -16 95 -96 190 -159 254 -170 523 -251 752
-225 205 23 357 85 439 178 29 33 30 36 13 43 -27 11 -65 46 -119 109 -26 30
-57 66 -69 80 -55 64 -83 109 -141 228 -34 71 -67 144 -73 163 -6 19 -29 90
-50 159 -39 122 -65 258 -77 410 -12 150 -34 221 -52 174z"/>
<path d="M13271 13699 c-3 -37 -45 -147 -68 -177 -14 -19 -39 -42 -57 -53 -17
-10 -27 -19 -22 -19 21 0 76 46 100 84 29 44 59 139 53 164 -4 15 -5 15 -6 1z"/>
<path d="M11808 13603 c6 -2 18 -2 25 0 6 3 1 5 -13 5 -14 0 -19 -2 -12 -5z"/>
<path d="M13020 13441 c0 -8 79 -3 89 5 2 2 -17 4 -42 4 -26 0 -47 -4 -47 -9z"/>
<path d="M13050 13354 c0 -20 60 -111 96 -147 62 -62 88 -72 185 -72 58 0 91
4 102 14 9 7 23 11 31 8 13 -5 32 20 23 30 -2 2 -26 -6 -52 -18 -58 -26 -159
-23 -215 6 -42 22 -102 83 -142 144 -15 25 -28 41 -28 35z"/>
<path d="M12444 13315 c25 -108 14 -170 -41 -234 -26 -30 -30 -40 -16 -32 30
15 60 56 74 98 13 41 7 141 -10 170 -11 17 -12 17 -7 -2z"/>
<path d="M12680 13199 c0 -13 5 -31 10 -39 7 -11 8 -5 4 20 -8 43 -14 51 -14
19z"/>
<path d="M7851 13144 c0 -11 3 -14 6 -6 3 7 2 16 -1 19 -3 4 -6 -2 -5 -13z"/>
<path d="M13442 13102 l-23 -37 25 28 c14 15 26 32 26 38 0 15 -4 11 -28 -29z"/>
<path d="M12710 13112 c0 -24 48 -107 82 -139 107 -103 312 -103 516 1 26 13
58 36 72 51 21 24 18 23 -21 -7 -53 -40 -177 -83 -284 -99 -90 -14 -178 0
-235 36 -42 27 -93 88 -115 137 -8 18 -14 27 -15 20z"/>
<path d="M12505 13028 l-40 -19 35 7 c19 3 39 10 44 15 19 17 0 16 -39 -3z"/>
<path d="M12325 13020 c-3 -5 -1 -10 4 -10 6 0 11 5 11 10 0 6 -2 10 -4 10 -3
0 -8 -4 -11 -10z"/>
<path d="M12408 13003 c6 -2 18 -2 25 0 6 3 1 5 -13 5 -14 0 -19 -2 -12 -5z"/>
<path d="M8500 12945 c0 -5 7 -28 16 -51 11 -29 21 -41 31 -37 12 5 12 8 0 22
-8 9 -22 30 -30 46 -9 17 -16 26 -17 20z"/>
<path d="M11880 12933 c-216 -23 -472 -132 -770 -328 -194 -127 -380 -336
-380 -425 0 -49 36 -35 154 63 61 49 136 93 137 80 0 -5 0 -67 -1 -138 -1
-190 19 -308 80 -454 53 -129 120 -216 243 -318 32 -27 102 -46 143 -40 25 3
24 4 -9 6 -57 2 -152 56 -196 112 -16 21 -17 32 -10 77 4 29 11 62 14 73 6 19
4 20 -24 14 -38 -8 -61 7 -61 42 0 18 9 28 35 39 48 20 102 18 114 -3 8 -14 9
-10 8 20 -2 21 -9 42 -16 47 -8 4 -11 15 -8 24 4 10 -8 28 -34 53 -67 63 -89
129 -57 170 5 7 5 14 -2 18 -19 12 -10 62 19 103 23 31 35 39 51 35 17 -5 21
-11 17 -31 -3 -14 -1 -33 4 -41 38 -72 64 -178 55 -231 -8 -48 13 -59 59 -30
18 11 35 20 37 20 3 0 17 -17 31 -39 16 -24 39 -43 59 -50 l33 -11 -25 23
c-64 57 -89 127 -90 254 0 75 17 95 91 113 59 14 134 -3 155 -35 19 -29 44
-141 44 -198 0 -90 -39 -135 -133 -152 l-34 -7 23 -25 c18 -20 26 -22 42 -14
11 6 23 7 26 3 4 -4 12 1 17 11 6 9 14 15 20 12 5 -4 9 1 9 9 0 8 10 32 22 52
12 21 25 56 28 78 l5 41 53 3 c44 3 52 6 52 23 0 10 3 19 8 19 4 0 13 4 21 9
11 7 9 13 -9 31 -12 12 -19 28 -16 36 3 8 0 24 -7 34 -9 16 -9 24 1 40 11 17
10 23 -4 37 -15 15 -14 17 3 26 28 15 28 16 7 31 -15 12 -17 17 -6 28 18 18
41 1 69 -52 13 -24 31 -52 40 -62 17 -19 19 -44 8 -124 -5 -31 -3 -59 3 -71 9
-15 8 -25 -2 -39 -17 -23 -1 -64 24 -64 35 0 85 -44 91 -80 5 -32 7 -28 25 45
28 118 26 348 -4 465 -28 108 -99 250 -158 318 -26 29 -44 56 -40 59 3 4 56
10 117 14 180 13 297 -15 342 -84 25 -39 47 -127 47 -192 0 -53 -20 -155 -45
-230 -4 -13 6 -6 28 18 24 26 45 68 68 135 33 94 34 102 34 252 0 177 -10 212
-85 285 -38 37 -44 39 -142 52 -104 13 -383 23 -448 16z m143 -471 c25 -22 22
-68 -5 -86 -73 -47 -183 -41 -207 10 -18 41 11 67 104 90 55 13 81 10 108 -14z
m-448 -182 c-3 -5 -10 -10 -16 -10 -5 0 -9 5 -9 10 0 6 7 10 16 10 8 0 12 -4
9 -10z m257 -285 c0 -5 -5 -11 -11 -13 -6 -2 -11 4 -11 13 0 9 5 15 11 13 6
-2 11 -8 11 -13z"/>
<path d="M9507 12828 c53 -136 208 -334 302 -386 55 -31 52 -20 -6 20 -100 68
-216 215 -279 353 -30 65 -41 73 -17 13z"/>
<path d="M12572 12850 c0 -14 2 -19 5 -12 2 6 2 18 0 25 -3 6 -5 1 -5 -13z"/>
<path d="M8610 12777 c18 -26 38 -47 43 -47 9 0 -47 75 -66 87 -6 3 4 -15 23
-40z"/>
<path d="M12580 12814 c0 -6 8 -64 17 -129 23 -171 23 -507 -1 -634 -23 -126
-66 -258 -137 -420 -32 -74 -57 -136 -55 -138 7 -8 120 248 151 342 86 262
102 553 50 881 -14 86 -25 129 -25 98z"/>
<path d="M6702 12765 c0 -16 2 -22 5 -12 2 9 2 23 0 30 -3 6 -5 -1 -5 -18z"/>
<path d="M6712 12710 c0 -14 2 -19 5 -12 2 6 2 18 0 25 -3 6 -5 1 -5 -13z"/>
<path d="M8596 12670 c12 -51 104 -228 158 -305 31 -44 56 -74 56 -68 0 7 -22
40 -48 75 -26 35 -68 106 -93 158 -76 159 -80 167 -73 140z"/>
<path d="M8700 12676 c0 -2 8 -10 18 -17 15 -13 16 -12 3 4 -13 16 -21 21 -21
13z"/>
<path d="M6722 12650 c0 -14 2 -19 5 -12 2 6 2 18 0 25 -3 6 -5 1 -5 -13z"/>
<path d="M6741 12574 c0 -11 3 -14 6 -6 3 7 2 16 -1 19 -3 4 -6 -2 -5 -13z"/>
<path d="M6471 12464 c0 -11 3 -14 6 -6 3 7 2 16 -1 19 -3 4 -6 -2 -5 -13z"/>
<path d="M8664 12361 c7 -11 46 -35 46 -28 0 3 -12 12 -26 22 -15 9 -23 12
-20 6z"/>
<path d="M8727 12319 c7 -7 15 -10 18 -7 3 3 -2 9 -12 12 -14 6 -15 5 -6 -5z"/>
<path d="M11604 12056 c8 -72 22 -106 42 -106 14 0 15 7 10 48 -11 72 -26 112
-43 112 -13 0 -15 -9 -9 -54z"/>
<path d="M7405 11929 c-133 -20 -143 -23 -302 -82 -143 -53 -299 -181 -323
-264 -10 -37 -7 -44 75 -208 91 -181 174 -309 226 -346 30 -21 32 -21 27 -3
-4 10 -36 82 -72 159 -70 147 -78 187 -52 248 20 50 107 130 183 169 71 37
220 94 228 87 2 -3 6 -65 9 -139 7 -225 59 -422 152 -586 50 -88 83 -129 65
-81 -9 22 -8 27 5 27 8 0 12 5 9 10 -3 6 -1 10 5 10 6 0 9 4 6 9 -4 5 0 12 6
14 7 3 -1 6 -18 6 -60 2 -72 56 -14 67 20 4 35 16 45 37 20 39 19 50 -4 71
-11 10 -17 24 -14 32 3 8 0 14 -6 14 -8 0 -10 11 -6 34 4 19 2 43 -5 55 -18
35 -21 81 -4 88 9 3 12 13 9 23 -11 36 87 72 101 37 3 -8 6 -67 8 -133 2 -125
14 -168 55 -211 11 -12 21 -27 21 -33 0 -6 5 -8 11 -4 6 3 15 0 20 -7 7 -11 9
-11 9 2 0 9 9 24 21 35 20 18 21 17 61 -30 45 -52 88 -76 139 -76 38 0 79 41
111 112 23 49 24 49 60 44 20 -3 42 -8 50 -11 32 -12 53 120 23 145 -9 7 -13
21 -10 30 3 9 -1 29 -9 44 -8 15 -12 44 -11 63 2 21 -2 45 -11 57 -18 26 -18
70 -1 85 8 6 37 15 66 21 42 8 58 7 82 -5 49 -26 48 -94 -2 -110 -14 -5 -18
-12 -13 -23 4 -10 9 -29 12 -45 2 -15 8 -30 13 -33 5 -3 9 -25 9 -50 0 -24 5
-53 10 -64 6 -11 15 -29 20 -40 6 -11 10 -26 10 -34 0 -7 12 -25 27 -40 24
-24 28 -25 36 -10 13 23 1 255 -17 324 -20 79 -42 134 -73 190 -15 27 -25 52
-21 55 3 4 41 -8 83 -25 89 -35 115 -33 115 11 0 42 -74 118 -158 162 -111 58
-260 105 -389 122 -171 22 -519 19 -688 -6z m415 -544 c0 -16 -35 -21 -44 -6
-8 12 4 21 26 21 10 0 18 -7 18 -15z m244 -24 c3 -5 14 -7 24 -5 31 9 51 -20
72 -100 24 -95 25 -143 5 -194 -20 -49 -81 -87 -124 -77 -52 11 -115 82 -125
140 -2 17 -9 46 -15 65 -6 19 -11 56 -11 82 0 41 3 48 19 48 11 0 23 5 27 11
17 28 116 51 128 30z m452 -140 c-8 -13 -36 -15 -36 -3 0 4 5 13 12 20 14 14
34 0 24 -17z"/>
<path d="M8011 11258 c1 -51 23 -113 39 -113 12 0 14 11 11 50 -4 62 -16 95
-36 95 -10 0 -15 -10 -14 -32z"/>
<path d="M12683 11910 c-13 -51 -86 -183 -177 -319 -51 -78 -87 -136 -79 -129
20 16 122 161 167 236 21 34 40 62 43 62 11 0 -32 -355 -63 -510 -34 -171
-108 -438 -164 -595 -64 -175 -65 -180 -29 -105 124 260 268 878 269 1151 0
68 5 101 25 154 14 37 23 70 20 73 -3 4 -9 -5 -12 -18z"/>
<path d="M11718 11383 c7 -3 16 -2 19 1 4 3 -2 6 -13 5 -11 0 -14 -3 -6 -6z"/>
<path d="M12338 11378 c-18 -14 -53 -68 -45 -68 3 0 20 18 37 40 33 41 35 49
8 28z"/>
<path d="M11638 11373 c12 -2 30 -2 40 0 9 3 -1 5 -23 4 -22 0 -30 -2 -17 -4z"/>
<path d="M6294 11230 c15 -38 67 -131 108 -196 57 -90 334 -423 427 -514 102
-100 196 -181 262 -226 74 -50 159 -103 149 -92 -11 13 -99 77 -121 88 -149
78 -612 596 -765 857 -66 112 -81 133 -60 83z"/>
<path d="M12677 11105 c-28 -123 -82 -255 -188 -464 -54 -107 -95 -190 -90
-185 18 19 108 183 151 277 25 53 48 97 53 97 10 0 9 -116 -3 -271 -13 -176
-51 -284 -166 -467 -30 -47 -54 -90 -54 -96 0 -14 70 89 120 178 52 91 59 83
40 -48 -35 -246 -270 -854 -518 -1340 l-87 -171 -3 275 c-1 151 -6 278 -10
282 -10 10 -11 -9 -18 -286 -4 -178 -3 -255 5 -270 10 -18 5 -33 -37 -106 -86
-148 -182 -306 -254 -415 -38 -59 55 50 116 134 150 209 385 647 530 986 196
461 278 734 292 976 4 65 14 125 26 159 38 105 49 196 47 380 -1 142 2 184 15
220 24 64 58 200 54 218 -2 8 -11 -20 -21 -63z"/>
<path d="M8530 11039 c0 -5 5 -7 10 -4 6 3 10 8 10 11 0 2 -4 4 -10 4 -5 0
-10 -5 -10 -11z"/>
<path d="M8531 11004 c0 -11 3 -14 6 -6 3 7 2 16 -1 19 -3 4 -6 -2 -5 -13z"/>
<path d="M8360 10730 c-75 -40 -198 -71 -300 -78 -56 -4 -77 -8 -60 -12 77
-21 324 41 400 100 33 26 26 24 -40 -10z"/>
<path d="M9670 10737 c0 -7 6 -21 13 -32 18 -24 32 -3 17 25 -12 23 -30 27
-30 7z"/>
<path d="M7795 10671 c8 -15 106 -33 145 -29 31 4 30 5 -11 6 -26 1 -66 9 -89
17 -50 18 -53 18 -45 6z"/>
<path d="M7459 10548 c-2 -54 0 -100 5 -105 3 -4 5 24 5 60 -1 63 -8 93 -10
45z"/>
<path d="M7458 10359 c0 -35 -2 -75 -3 -89 -7 -86 -8 -107 -1 -127 6 -18 4
-23 -11 -23 -11 0 -24 5 -30 11 -12 12 -85 31 -78 20 2 -4 29 -18 59 -31 l56
-23 0 -126 0 -126 -20 25 c-11 14 -45 75 -77 137 -32 61 -59 110 -61 109 -6
-6 31 -100 73 -190 74 -158 80 -182 79 -351 -2 -337 -16 -633 -35 -765 -19
-128 -24 -149 -33 -139 -2 2 -43 76 -91 163 -47 88 -136 236 -197 330 -60 93
-123 194 -139 224 -17 32 -29 47 -29 36 -1 -10 -16 10 -35 46 -46 87 -44 72 4
-31 76 -166 151 -388 196 -582 62 -267 100 -412 130 -491 31 -82 31 -96 3 -96
-13 -1 9 -11 48 -24 38 -12 85 -31 103 -42 39 -23 89 -95 95 -138 7 -46 16
-1177 9 -1209 -3 -15 -26 -48 -51 -72 -58 -57 -40 -59 26 -2 76 65 201 127
276 138 50 7 94 25 215 90 83 44 151 82 151 84 0 10 -85 -28 -166 -73 -90 -51
-137 -70 -228 -91 -26 -7 -75 -25 -108 -42 -33 -17 -61 -29 -63 -27 -8 8 -15
312 -20 888 -8 884 -24 2099 -31 2405 -6 252 -12 335 -16 204z"/>
<path d="M9730 10301 c-263 -4 -393 -10 -411 -18 -46 -20 -102 -76 -122 -122
-54 -121 8 -274 128 -314 65 -23 847 -14 913 10 181 64 204 321 37 418 -56 33
-56 33 -545 26z m452 -168 c37 -33 10 -123 -36 -123 -53 0 -92 51 -75 97 15
42 77 57 111 26z m-674 -13 c46 -43 16 -110 -48 -110 -48 0 -70 21 -70 65 0
60 73 87 118 45z"/>
<path d="M7270 10180 c0 -5 5 -10 11 -10 5 0 7 5 4 10 -3 6 -8 10 -11 10 -2 0
-4 -4 -4 -10z"/>
<path d="M12345 9954 c-9 -15 -12 -23 -6 -20 11 7 35 46 28 46 -3 0 -12 -12
-22 -26z"/>
<path d="M9885 8470 c4 -6 11 -8 16 -5 14 9 11 15 -7 15 -8 0 -12 -5 -9 -10z"/>
<path d="M9976 8403 c33 -76 3 -170 -104 -327 -84 -123 -81 -133 6 -19 67 89
63 82 96 158 35 82 41 124 22 168 -8 21 -18 37 -22 37 -3 0 -3 -8 2 -17z"/>
<path d="M7167 8085 c6 -145 -11 -405 -37 -575 -17 -104 -66 -292 -95 -362
-12 -29 3 -20 20 11 20 40 82 283 101 401 19 117 31 583 16 620 -8 18 -9 -8
-5 -95z"/>
<path d="M9215 8060 c-3 -6 1 -7 9 -4 18 7 21 14 7 14 -6 0 -13 -4 -16 -10z"/>
<path d="M9073 7934 c-20 -18 -22 -22 -7 -15 21 10 52 41 41 41 -3 0 -19 -12
-34 -26z"/>
<path d="M9688 7874 c-43 -36 -78 -70 -78 -76 0 -5 36 22 80 62 71 64 87 80
78 80 -2 0 -38 -30 -80 -66z"/>
<path d="M8989 7864 c-7 -8 -38 -32 -68 -52 -31 -20 -99 -77 -151 -127 -52
-49 -135 -124 -184 -165 -163 -137 -316 -271 -316 -277 0 -3 8 1 18 9 9 8 103
86 207 173 105 87 226 193 270 235 98 95 139 130 186 158 40 24 78 62 62 62
-6 0 -16 -7 -24 -16z"/>
<path d="M9499 7663 c-13 -16 -12 -17 4 -4 16 13 21 21 13 21 -2 0 -10 -8 -17
-17z"/>
<path d="M9417 7595 c-15 -14 -24 -25 -18 -25 5 0 23 11 38 25 15 13 24 24 18
24 -5 0 -23 -11 -38 -24z"/>
<path d="M9106 7305 c-22 -19 -34 -35 -28 -35 6 0 14 5 17 11 4 6 12 8 19 6 7
-3 19 8 28 24 22 38 12 36 -36 -6z"/>
<path d="M8229 7213 c-13 -16 -12 -17 4 -4 9 7 17 15 17 17 0 8 -8 3 -21 -13z"/>
<path d="M8808 7066 c-76 -67 -127 -120 -182 -186 -12 -14 22 18 74 70 52 53
119 117 149 143 29 26 50 47 47 47 -3 0 -43 -33 -88 -74z"/>
<path d="M8100 7109 c0 -5 5 -7 10 -4 6 3 10 8 10 11 0 2 -4 4 -10 4 -5 0 -10
-5 -10 -11z"/>
<path d="M7011 7083 c-1 -6 -4 -20 -7 -30 -5 -17 -5 -17 6 0 6 10 9 23 6 30
-3 9 -5 9 -5 0z"/>
<path d="M11205 6875 c22 -33 26 -48 22 -87 -2 -26 0 -45 5 -42 13 8 9 82 -6
113 -8 15 -22 34 -32 41 -9 8 -4 -3 11 -25z"/>
<path d="M10458 6863 c6 -2 18 -2 25 0 6 3 1 5 -13 5 -14 0 -19 -2 -12 -5z"/>
<path d="M10388 6853 c7 -3 16 -2 19 1 4 3 -2 6 -13 5 -11 0 -14 -3 -6 -6z"/>
<path d="M8557 6803 c-4 -3 -7 -11 -7 -17 0 -6 5 -5 12 2 6 6 9 14 7 17 -3 3
-9 2 -12 -2z"/>
<path d="M8476 6661 c-14 -22 -26 -43 -26 -47 0 -13 32 20 46 49 24 45 9 44
-20 -2z"/>
<path d="M11070 6640 c-13 -8 -13 -10 2 -10 9 0 20 5 23 10 8 13 -5 13 -25 0z"/>
<path d="M8988 6573 c7 -3 16 -2 19 1 4 3 -2 6 -13 5 -11 0 -14 -3 -6 -6z"/>
<path d="M8535 6500 c-3 -5 1 -10 9 -10 8 0 18 5 21 10 3 6 -1 10 -9 10 -8 0
-18 -4 -21 -10z"/>
<path d="M12511 6423 c-28 -101 -29 -112 -15 -106 8 3 16 15 18 27 8 35 17
126 13 126 -1 0 -9 -21 -16 -47z"/>
<path d="M10528 6443 c7 -3 16 -2 19 1 4 3 -2 6 -13 5 -11 0 -14 -3 -6 -6z"/>
<path d="M10310 6375 c-52 -18 -90 -34 -85 -34 6 -1 56 14 110 33 55 19 93 34
85 34 -8 0 -58 -15 -110 -33z"/>
<path d="M10150 6325 c-19 -7 -28 -13 -20 -13 8 0 31 6 50 13 19 7 28 13 20
13 -8 0 -31 -6 -50 -13z"/>
<path d="M9778 6213 c6 -2 18 -2 25 0 6 3 1 5 -13 5 -14 0 -19 -2 -12 -5z"/>
<path d="M9708 6203 c7 -3 16 -2 19 1 4 3 -2 6 -13 5 -11 0 -14 -3 -6 -6z"/>
<path d="M9475 6150 c-13 -5 -14 -9 -5 -9 8 0 24 4 35 9 13 5 14 9 5 9 -8 0
-24 -4 -35 -9z"/>
<path d="M9428 6133 c7 -3 16 -2 19 1 4 3 -2 6 -13 5 -11 0 -14 -3 -6 -6z"/>
<path d="M9325 6120 c-42 -11 -1 -11 50 -1 34 7 35 9 10 9 -16 0 -43 -4 -60
-8z"/>
<path d="M9258 6103 c6 -2 18 -2 25 0 6 3 1 5 -13 5 -14 0 -19 -2 -12 -5z"/>
<path d="M9178 6083 c7 -3 16 -2 19 1 4 3 -2 6 -13 5 -11 0 -14 -3 -6 -6z"/>
<path d="M6910 6054 c0 -5 4 -14 9 -19 25 -27 221 -395 386 -724 102 -204 187
-371 189 -371 7 0 -106 244 -223 483 -139 280 -361 670 -361 631z"/>
<path d="M8928 6033 c6 -2 18 -2 25 0 6 3 1 5 -13 5 -14 0 -19 -2 -12 -5z"/>
<path d="M8685 5960 c-8 -13 5 -13 25 0 13 8 13 10 -2 10 -9 0 -20 -4 -23 -10z"/>
<path d="M8666 5924 c-12 -31 -6 -74 13 -93 28 -28 84 -41 175 -41 94 0 98 7
6 11 -73 2 -146 21 -168 43 -8 8 -14 32 -14 55 1 44 -2 50 -12 25z"/>
<path d="M10115 5929 c-123 -7 -414 -45 -424 -55 -7 -6 2 -5 163 16 81 11 225
25 320 30 94 6 182 12 196 14 50 6 -128 3 -255 -5z"/>
<path d="M10428 5933 c12 -2 30 -2 40 0 9 3 -1 5 -23 4 -22 0 -30 -2 -17 -4z"/>
<path d="M9460 5854 c-36 -8 -130 -21 -210 -30 -80 -9 -179 -19 -220 -24 l-75
-9 85 4 c123 5 293 23 385 41 44 8 109 19 145 23 l65 8 -55 1 c-30 0 -84 -6
-120 -14z"/>
<path d="M6193 5770 c-10 -33 -106 -306 -120 -340 -3 -8 -6 -18 -5 -22 1 -4
-7 -34 -18 -68 -33 -103 -86 -417 -67 -400 3 3 15 59 27 125 43 240 80 376
179 660 12 32 20 64 18 70 -2 5 -9 -6 -14 -25z"/>
<path d="M10518 5553 c7 -3 16 -2 19 1 4 3 -2 6 -13 5 -11 0 -14 -3 -6 -6z"/>
<path d="M10318 5533 c12 -2 30 -2 40 0 9 3 -1 5 -23 4 -22 0 -30 -2 -17 -4z"/>
<path d="M9740 5439 c-30 -5 -95 -18 -145 -29 -49 -11 -103 -21 -120 -23 -25
-3 -23 -4 10 -6 22 0 56 4 75 9 19 6 77 17 127 25 51 9 103 20 115 25 28 11
10 10 -62 -1z"/>
<path d="M9225 5360 c-8 -13 5 -13 25 0 13 8 13 10 -2 10 -9 0 -20 -4 -23 -10z"/>
<path d="M9048 5323 c12 -2 30 -2 40 0 9 3 -1 5 -23 4 -22 0 -30 -2 -17 -4z"/>
<path d="M7585 4765 c47 -86 169 -267 197 -292 12 -10 0 11 -26 46 -25 35 -78
116 -118 180 -84 136 -107 165 -53 66z"/>
<path d="M8221 3670 c0 -8 4 -24 9 -35 5 -13 9 -14 9 -5 0 8 -4 24 -9 35 -5
13 -9 14 -9 5z"/>
<path d="M8246 3585 c3 -16 19 -93 34 -170 36 -175 50 -300 59 -530 l8 -180 1
150 c3 249 -41 588 -94 722 -12 31 -13 33 -8 8z"/>
<path d="M8334 2580 c0 -63 1 -89 3 -57 2 31 2 83 0 115 -2 31 -3 5 -3 -58z"/>
<path d="M16713 2315 c0 -22 2 -30 4 -17 2 12 2 30 0 40 -3 9 -5 -1 -4 -23z"/>
<path d="M16702 2220 c0 -14 2 -19 5 -12 2 6 2 18 0 25 -3 6 -5 1 -5 -13z"/>
<path d="M18708 1351 c-53 -31 -99 -59 -103 -62 -3 -4 10 -34 30 -68 l36 -62
32 19 c18 11 66 39 107 63 41 23 77 44 78 45 6 4 -63 117 -73 120 -6 1 -54
-23 -107 -55z"/>
<path d="M18413 1181 c-57 -31 -106 -60 -109 -64 -5 -5 45 -107 62 -126 1 -1
52 25 113 60 l111 63 -31 55 c-17 31 -34 59 -38 63 -3 4 -52 -19 -108 -51z"/>
<path d="M18813 1149 l-101 -60 36 -64 37 -64 45 26 c25 14 73 42 107 62 35
20 63 39 63 43 0 15 -65 118 -75 117 -5 0 -56 -28 -112 -60z"/>
<path d="M18523 982 c-57 -32 -105 -61 -108 -64 -8 -7 64 -130 73 -125 86 47
212 120 212 124 0 9 -65 123 -70 123 -3 0 -51 -26 -107 -58z"/>
<path d="M18966 970 c-65 -37 -122 -72 -128 -78 -9 -9 19 -67 50 -104 19 -23
48 -16 139 36 l73 41 0 88 c0 48 -3 87 -7 86 -5 0 -61 -31 -127 -69z"/>
<path d="M14052 360 c0 -14 2 -19 5 -12 2 6 2 18 0 25 -3 6 -5 1 -5 -13z"/>
<path d="M14005 219 c-11 -16 -1 -19 13 -3 7 8 8 14 3 14 -5 0 -13 -5 -16 -11z"/>
<path d="M13975 139 c-9 -14 -2 -20 14 -10 8 6 9 11 3 15 -6 3 -14 1 -17 -5z"/>
</g>
</svg>
